<?xml version="1.0" encoding="utf-8"?>
<!-- Generator: Adobe Illustrator 25.3.0, SVG Export Plug-In . SVG Version: 6.00 Build 0)  -->
<svg version="1.1" id="Capa_1" xmlns="http://www.w3.org/2000/svg" xmlns:xlink="http://www.w3.org/1999/xlink" x="0px" y="0px"
	 viewBox="0 0 1920 1920" style="enable-background:new 0 0 1920 1920;" xml:space="preserve">
<style type="text/css">
	.st0{fill:#171717;}
	.st1{fill:#FFFFFF;}
</style>
<g>
	<g>
		<path class="st0" d="M545.17,1055.74c-5.73-1.78-8.37-8.34-9.96-12.26c-4.73-11.72,1.59-18.55,3.83-38.3
			c0.78-6.89,2.38-22.34-3.06-39.83c-1.47-4.71-4.42-14.21-11.49-24.51c-4.03-5.88-8.05-10.04-13.79-19.91
			c-5.32-9.14-5.83-12.37-5.36-15.32c1.04-6.56,6.76-10.71,9.96-13.02c3.35-2.43,8.04-5.83,13.79-5.36
			c7.13,0.57,11.75,6.76,16.85,13.79c6.4,8.82,9.66,17.28,11.49,22.98c3.4,10.62,2.38,13.38,6.89,37.53
			c3.02,16.19,4.14,18.43,6.13,20.68c3.6,4.07,6.02,3.55,20.68,13.79c0.36,0.25,4.04,2.84,8.43,6.89c5.23,4.83,7.84,7.3,7.66,9.96
			c-0.3,4.42-8.17,7.15-11.49,8.43C566.39,1032.58,558.22,1059.81,545.17,1055.74z"/>
		<path class="st1" d="M545.17,1055.74c-2.15-0.67-4.01-2.07-5.47-3.78c-1.47-1.71-2.62-3.67-3.64-5.69
			c-0.49-1.02-1.01-2.01-1.45-3.06l-0.66-1.58c-0.19-0.54-0.35-1.09-0.53-1.64c-0.67-2.21-1-4.56-0.99-6.91
			c-0.01-2.35,0.3-4.66,0.63-6.92c0.35-2.26,0.73-4.47,1.11-6.67c0.73-4.39,1.34-8.71,1.66-13.06l0.7-6.54
			c0.21-2.17,0.3-4.35,0.34-6.52c0.07-4.35-0.15-8.69-0.71-12.99c-0.55-4.3-1.42-8.55-2.63-12.69c-1.21-4.22-2.64-8.33-4.38-12.28
			c-1.74-3.96-3.79-7.77-6.15-11.38c-2.32-3.61-5.12-7.02-7.83-10.74c-2.71-3.7-5.2-7.59-7.47-11.56c-1.14-1.99-2.25-4.02-3.25-6.19
			c-0.97-2.17-1.97-4.5-2.21-7.45c-0.05-0.73-0.03-1.48,0.04-2.2c0.07-0.71,0.23-1.37,0.37-2.04c0.35-1.32,0.8-2.63,1.44-3.8
			c1.24-2.39,2.93-4.38,4.73-6.08c1.81-1.7,3.76-3.11,5.59-4.41c1.88-1.34,3.95-2.72,6.32-3.74c2.35-1.03,5.06-1.7,7.82-1.59
			c1.37,0.03,2.75,0.28,4.07,0.66c1.31,0.42,2.58,0.96,3.72,1.65c2.32,1.35,4.16,3.1,5.81,4.86c1.65,1.78,3.07,3.63,4.44,5.46
			l2.01,2.76c0.68,0.95,1.34,1.91,1.98,2.88c1.27,1.95,2.46,3.96,3.56,6.01c2.2,4.1,4.04,8.39,5.54,12.77c0.75,2.18,1.42,4.4,2,6.68
			c0.58,2.28,1.02,4.59,1.37,6.85c0.7,4.52,1.27,8.9,1.98,13.3c0.7,4.39,1.47,8.78,2.29,13.17c0.83,4.37,1.66,8.78,2.74,12.94
			c0.55,2.04,1.17,4.1,2.01,5.26c0.42,0.6,1.16,1.38,1.79,1.95c0.66,0.59,1.41,1.1,2.31,1.65l5.78,3.38
			c1.96,1.18,3.89,2.4,5.79,3.65c1.91,1.27,3.74,2.51,5.66,3.87c1.9,1.39,3.7,2.82,5.46,4.33c0.88,0.75,1.74,1.52,2.6,2.3l2.49,2.32
			c0.83,0.79,1.67,1.59,2.51,2.47c0.83,0.89,1.69,1.82,2.49,3.12c0.4,0.63,0.78,1.41,1.02,2.32c0.24,0.9,0.34,1.98,0.13,2.93
			c-0.34,1.99-1.44,3.45-2.48,4.49c-1.06,1.05-2.17,1.82-3.27,2.47c-1.1,0.65-2.21,1.2-3.31,1.69c-1.1,0.49-2.2,0.92-3.26,1.33
			c-1.07,0.39-2.01,0.81-3.01,1.23c-0.99,0.41-1.92,0.93-2.9,1.37c-0.94,0.51-1.92,0.94-2.87,1.43
			c-7.72,3.74-14.86,8.96-21.55,14.91l-4.98,4.53c-1.64,1.54-3.32,3.04-5.07,4.48c-1.75,1.41-3.57,2.8-5.66,3.67
			c-1.02,0.48-2.14,0.72-3.25,0.83C547.37,1056.25,546.25,1056.03,545.17,1055.74z M545.17,1055.74c1.08,0.28,2.2,0.48,3.32,0.35
			c1.11-0.12,2.2-0.42,3.2-0.92c2.03-0.95,3.74-2.42,5.34-3.96c3.17-3.14,5.93-6.68,8.83-10.13c2.88-3.48,5.89-6.91,9.24-10.08
			c3.32-3.19,7.03-6.04,11.01-8.53c1-0.62,2.04-1.16,3.09-1.68c1.07-0.49,2.13-0.97,3.22-1.41c1.08-0.43,2.2-0.89,3.23-1.28
			c1.03-0.39,2.01-0.78,2.97-1.21c1.86-0.84,3.71-1.83,4.77-2.92c0.54-0.53,0.77-1,0.8-1.24c0.06-0.14,0.03-0.21-0.01-0.39
			c-0.05-0.17-0.14-0.42-0.35-0.74c-0.37-0.62-1.02-1.37-1.72-2.11c-0.7-0.74-1.49-1.49-2.28-2.25l-2.43-2.26
			c-0.8-0.73-1.61-1.45-2.43-2.16c-1.65-1.41-3.35-2.77-5.08-4.03c-1.74-1.22-3.62-2.5-5.44-3.71c-1.85-1.21-3.7-2.39-5.58-3.52
			l-5.82-3.41c-1.02-0.61-2.13-1.36-3.15-2.27c-0.5-0.45-0.99-0.92-1.42-1.4c-0.44-0.47-0.88-0.99-1.31-1.6
			c-0.86-1.23-1.43-2.53-1.85-3.71c-0.42-1.19-0.76-2.34-1.05-3.47c-1.17-4.52-1.99-8.93-2.84-13.37
			c-0.82-4.43-1.61-8.87-2.32-13.33c-0.72-4.45-1.31-8.96-1.98-13.3c-0.34-2.17-0.74-4.26-1.26-6.33c-0.53-2.07-1.16-4.14-1.86-6.2
			c-1.4-4.1-3.11-8.08-5.15-11.88c-1.02-1.9-2.12-3.75-3.29-5.56c-0.59-0.9-1.2-1.79-1.83-2.66l-1.95-2.68
			c-2.61-3.5-5.32-6.86-8.47-8.73c-3.1-1.88-6.71-1.94-10.19-0.38c-1.75,0.75-3.46,1.86-5.22,3.12c-1.82,1.3-3.51,2.53-4.97,3.9
			c-1.45,1.37-2.69,2.86-3.51,4.46c-0.44,0.79-0.71,1.63-0.94,2.47c-0.08,0.42-0.19,0.85-0.23,1.26c-0.04,0.4-0.05,0.77-0.02,1.16
			c0.1,1.54,0.8,3.46,1.67,5.35c0.88,1.9,1.91,3.81,3,5.71c2.18,3.81,4.53,7.48,7.12,11.01c2.56,3.53,5.46,7.06,8,10.99
			c2.54,3.89,4.75,8,6.62,12.25c1.88,4.25,3.39,8.63,4.65,13.02c1.3,4.46,2.23,9.02,2.82,13.61c0.6,4.59,0.83,9.23,0.75,13.84
			c-0.04,2.31-0.15,4.61-0.31,6.91c-0.16,2.31-0.31,4.55-0.72,6.83c-0.8,4.54-1.96,9.02-3.37,13.34c-1.37,4.33-3.04,8.46-3.74,12.71
			c-0.32,2.12-0.35,4.29-0.01,6.44c0.11,0.53,0.2,1.07,0.32,1.61l0.46,1.58c0.32,1.06,0.69,2.13,1.11,3.16
			c0.82,2.07,1.83,4.08,3.21,5.83c0.7,0.86,1.48,1.68,2.38,2.34C543.11,1054.87,544.11,1055.38,545.17,1055.74z"/>
	</g>
	<g>
		<path class="st0" d="M650.87,1241.87c-5.16,0.77-10.73,0.82-15.32-2.3c-5.73-3.9-7.25-10.89-8.43-17.62
			c-5.1-29.21-0.85-37.21-6.13-52.85c-2.88-8.51-6.77-13.85-14.55-24.51c-13.15-18.02-16.49-14.41-29.11-31.4
			c-12.82-17.26-13.43-26.44-25.28-32.17c-2.77-1.34-6.58-2.7-7.66-6.13c-1.79-5.7,5.5-12.63,10.72-17.62
			c10.11-9.65,14.04-8.41,26.81-19.15c6.71-5.65,7.65-7.69,11.49-8.43c8.51-1.62,17.62,5.82,22.21,11.49
			c18.22,22.47-6.46,51.55,10.72,75.83c3.51,4.97,11.28,9.69,26.81,19.15c15.64,9.52,25.36,15.44,39.83,21.45
			c9.9,4.11,15.91,5.72,20.68,12.26c5.97,8.18,5.47,17.88,5.36,19.91C717.44,1220.92,670.27,1238.97,650.87,1241.87z"/>
		<path class="st1" d="M650.87,1241.87c-3.09,0.46-6.26,0.69-9.37,0.16c-3.11-0.48-6.11-1.89-8.4-4.14
			c-2.31-2.23-3.87-5.16-4.92-8.17c-1.08-3.02-1.79-6.12-2.46-9.2c-1.4-6.15-2.55-12.39-3.31-18.7c-0.38-3.15-0.68-6.32-0.9-9.46
			c-0.22-3.14-0.44-6.24-0.77-9.24c-0.34-3-0.71-5.91-1.39-8.79c-0.67-2.87-1.64-5.73-2.81-8.42c-2.33-5.39-5.89-10.36-9.53-15.42
			l-2.76-3.79c-0.93-1.24-1.83-2.46-2.77-3.68c-1.88-2.4-3.84-4.71-5.93-6.86c-2.08-2.16-4.34-4.11-6.75-6.16
			c-2.4-2.05-4.86-4.3-7.06-6.7c-2.2-2.41-4.27-4.9-6.19-7.47c-1.94-2.56-3.77-5.18-5.52-7.86c-1.76-2.67-3.39-5.42-5-8.13
			c-1.6-2.71-3.14-5.4-4.81-7.8c-1.68-2.41-3.52-4.47-5.74-6.09c-0.55-0.41-1.16-0.76-1.73-1.14c-0.6-0.35-1.24-0.66-1.86-1
			c-1.26-0.64-2.83-1.26-4.42-2.22c-1.57-0.93-3.36-2.35-4.43-4.5c-0.53-1.05-0.82-2.24-0.9-3.38c-0.02-0.57-0.06-1.16,0.03-1.69
			c0.07-0.54,0.13-1.09,0.28-1.58c0.52-2.02,1.42-3.67,2.37-5.16c0.98-1.48,2.05-2.79,3.15-4.05c2.22-2.5,4.51-4.68,6.85-6.87
			c2.38-2.22,4.98-4.32,7.74-6.15c2.77-1.82,5.56-3.31,8.13-4.9c2.58-1.58,5.04-3.3,7.43-5.18c2.39-1.88,4.71-3.85,6.98-5.94
			c1.17-1.05,2.26-2.14,3.8-3.29c0.77-0.57,1.71-1.13,2.72-1.52c1.01-0.38,2-0.64,2.95-0.73c3.88-0.57,7.6,0.41,10.79,1.83
			c3.2,1.47,6.02,3.43,8.55,5.64c2.54,2.2,4.81,4.71,6.78,7.54c1.93,2.84,3.43,6.01,4.4,9.3c1.96,6.63,1.82,13.43,1.2,19.79
			c-0.62,6.4-1.71,12.56-2.18,18.62c-0.48,6.04-0.31,12.01,1.44,17.47c0.87,2.73,2.13,5.3,3.73,7.68c0.2,0.29,0.39,0.62,0.58,0.88
			c0.2,0.25,0.38,0.51,0.6,0.76c0.42,0.5,0.9,1,1.39,1.48c1.01,0.97,2.15,1.89,3.32,2.8c4.8,3.58,10.19,6.82,15.5,10.09
			c10.73,6.48,21.3,13.21,32.3,18.75c5.52,2.78,11.14,5.2,16.96,7.5c2.91,1.18,5.92,2.37,8.92,4.05c2.99,1.68,5.87,4.08,7.95,6.92
			c2.13,2.8,3.65,6,4.67,9.28c1,3.3,1.51,6.69,1.56,10.09c0.08,3.37-0.39,6.84-1.25,10.14c-0.41,1.67-0.99,3.27-1.63,4.86
			c-0.36,0.77-0.71,1.54-1.1,2.3c-0.38,0.76-0.85,1.46-1.27,2.19c-1.82,2.83-3.91,5.44-6.2,7.8c-2.31,2.34-4.8,4.45-7.37,6.4
			c-2.6,1.92-5.31,3.65-8.06,5.26c-2.78,1.58-5.6,3.04-8.47,4.38c-5.75,2.66-11.65,4.92-17.63,6.85c-2.98,1-6.01,1.83-9.04,2.62
			C657.04,1240.74,653.98,1241.42,650.87,1241.87z M650.87,1241.87c6.19-1.02,12.22-2.83,18.05-5.09c2.92-1.13,5.76-2.43,8.58-3.78
			c2.8-1.39,5.52-2.9,8.2-4.49c2.65-1.62,5.23-3.35,7.72-5.17c2.48-1.84,4.84-3.8,7.1-5.85c4.45-4.15,8.43-8.74,11.15-13.89
			c1.4-2.54,2.58-5.16,3.35-7.9c0.76-2.74,1.12-5.56,1.07-8.45c-0.1-5.74-1.71-11.46-5.03-15.87c-1.64-2.22-3.68-3.92-6.13-5.32
			c-2.47-1.39-5.3-2.53-8.19-3.7c-5.83-2.3-11.74-4.85-17.42-7.71c-11.4-5.75-22.01-12.52-32.74-19c-5.35-3.31-10.74-6.52-16-10.43
			c-1.31-1.01-2.61-2.06-3.86-3.26c-0.62-0.62-1.24-1.25-1.82-1.95c-0.3-0.34-0.57-0.73-0.85-1.09c-0.28-0.37-0.48-0.72-0.72-1.07
			c-1.89-2.82-3.42-5.93-4.45-9.18c-2.09-6.53-2.22-13.35-1.71-19.76c0.51-6.45,1.6-12.65,2.19-18.73
			c0.59-6.06,0.64-12.06-0.98-17.51c-0.8-2.72-2.01-5.29-3.61-7.63c-1.61-2.32-3.57-4.5-5.77-6.4c-2.18-1.91-4.58-3.54-7.08-4.7
			c-2.5-1.11-5.11-1.72-7.47-1.35c-0.62,0.04-1.15,0.21-1.61,0.38c-0.45,0.18-0.87,0.42-1.37,0.78c-0.98,0.71-2.13,1.83-3.29,2.87
			c-2.34,2.16-4.8,4.25-7.33,6.24c-2.54,2-5.22,3.88-7.98,5.57c-2.77,1.71-5.51,3.18-7.98,4.8c-2.46,1.63-4.76,3.48-6.96,5.54
			c-2.24,2.09-4.49,4.25-6.43,6.44c-0.97,1.1-1.87,2.23-2.62,3.37c-0.74,1.13-1.32,2.3-1.57,3.32c-0.26,1.04-0.18,1.82,0.14,2.52
			c0.33,0.68,1.04,1.38,2.15,2.03c1.09,0.66,2.44,1.22,3.98,1.98c0.76,0.41,1.53,0.79,2.28,1.23c0.73,0.48,1.49,0.92,2.19,1.45
			c2.86,2.07,5.23,4.77,7.12,7.5c1.91,2.74,3.47,5.51,5.06,8.19c1.59,2.68,3.16,5.33,4.85,7.89c3.35,5.12,7.04,10.1,11.09,14.53
			c2.03,2.22,4.21,4.22,6.57,6.23c2.36,2.02,4.85,4.17,7.13,6.52c2.28,2.35,4.38,4.83,6.36,7.36c0.98,1.27,1.94,2.56,2.89,3.83
			l2.77,3.81c1.84,2.56,3.69,5.14,5.44,7.87c1.75,2.72,3.39,5.62,4.72,8.66c1.33,3.05,2.36,6.16,3.18,9.38
			c0.83,3.2,1.39,6.51,1.54,9.76c0.27,6.51-0.08,12.66,0.06,18.87c0.09,6.2,0.47,12.41,1.16,18.62c0.33,3.11,0.71,6.2,1.45,9.18
			c0.78,2.96,1.99,5.87,4.08,8.14c2.08,2.26,4.92,3.83,8,4.41C644.6,1242.51,647.78,1242.31,650.87,1241.87z"/>
	</g>
	<g>
		<path class="st0" d="M873,1376.68c0.93,4.17-12.4,6.91-17.62,20.68c-2.66,7.03-1.94,13.56-1.53,16.85
			c1.83,14.95,10.54,17.06,10.72,29.11c0.01,0.66,0.02,12.68-8.43,19.91c-4.71,4.03-10.54,4.73-22.21,6.13
			c-6.05,0.72-11.4,1.32-18.38,0c-2.78-0.53-8.94-1.69-14.55-5.36c-9.3-6.08-12.68-16.17-13.79-19.15
			c-8.94-24.02-58.05-90.67-99.57-130.98c-10.47-10.17-28.26-26.23-29.87-49.02c-0.35-5.02-0.98-13.96,4.6-19.91
			c8.54-9.12,21.71-0.62,34.47-10.72c7-5.55,6.57-10.91,15.32-15.32c1.23-0.62,8.13-4.1,15.32-3.06
			c12.03,1.73,19.33,15.29,23.74,23.74c14.41,27.61,21.62,41.41,47.49,94.98c10.35,21.43,13.45,25.84,19.15,29.87
			C839.65,1379.87,871.55,1370.16,873,1376.68z"/>
		<path class="st1" d="M873,1376.68c0.23,0.98-0.41,1.88-1.06,2.54c-0.67,0.69-1.43,1.27-2.19,1.85c-1.53,1.15-3.09,2.26-4.57,3.47
			c-2.95,2.42-5.55,5.29-7.42,8.59c-1.87,3.3-2.94,6.99-3.34,10.71c-0.36,3.74-0.02,7.49,0.73,11.17c0.73,3.65,1.99,7.1,3.92,10.21
			c1.84,3.14,4.43,6.08,6.16,10c0.88,1.93,1.39,4.06,1.68,6.16l0.16,1.58c0.03,0.24,0.04,0.58,0.04,0.84l0,0.8
			c-0.03,1.05-0.1,2.08-0.23,3.11c-0.25,2.05-0.67,4.09-1.29,6.1c-0.62,2-1.42,4-2.54,5.84c-0.51,0.95-1.18,1.82-1.82,2.7
			c-0.71,0.84-1.41,1.68-2.24,2.41c-1.55,1.54-3.54,2.84-5.56,3.74c-4.1,1.79-8.12,2.35-11.96,2.93c-3.89,0.52-7.6,0.98-11.53,1.38
			c-3.92,0.39-8.07,0.48-12.12-0.06c-1.01-0.13-2.03-0.3-3.01-0.48c-0.95-0.18-1.95-0.38-2.93-0.61c-1.97-0.46-3.95-1.05-5.88-1.79
			c-3.85-1.46-7.6-3.65-10.69-6.52c-3.11-2.84-5.62-6.23-7.58-9.84c-0.98-1.8-1.83-3.67-2.56-5.55c-0.39-0.94-0.67-1.89-1.04-2.69
			l-1.08-2.51c-0.65-1.68-1.59-3.33-2.42-5l-1.28-2.49l-1.4-2.46c-0.95-1.63-1.83-3.29-2.83-4.9l-2.98-4.84
			c-1.99-3.22-4.12-6.37-6.18-9.56c-2.16-3.13-4.27-6.29-6.47-9.4c-8.76-12.45-17.99-24.6-27.56-36.47
			c-9.57-11.87-19.49-23.45-29.84-34.61c-2.59-2.79-5.24-5.52-7.85-8.28c-2.64-2.73-5.36-5.38-8.04-8.08
			c-5.43-5.3-11.15-10.67-16.11-16.8c-4.98-6.09-9.38-12.89-12.16-20.51l-0.54-1.42l-0.43-1.46c-0.28-0.97-0.59-1.94-0.84-2.92
			c-0.39-1.99-0.9-3.97-1.06-6c-0.11-1-0.26-2.04-0.32-3.01c-0.07-0.96-0.13-1.96-0.16-2.97c-0.06-2.02-0.03-4.09,0.22-6.19
			c0.25-2.09,0.71-4.22,1.51-6.3c0.8-2.07,1.96-4.07,3.48-5.79c0.35-0.45,0.8-0.83,1.22-1.22c0.43-0.38,0.84-0.8,1.31-1.15
			c0.98-0.63,1.93-1.36,3.01-1.78c2.1-1.04,4.31-1.47,6.38-1.77c4.16-0.52,7.96-0.4,11.47-0.87c3.52-0.43,6.75-1.39,9.61-3.16
			l2.07-1.45c0.66-0.53,1.3-1.08,1.9-1.67c1.2-1.18,2.24-2.49,3.31-4.01c1.07-1.51,2.23-3.24,3.72-4.86
			c1.48-1.62,3.26-3.04,5.11-4.13c3.68-2.17,7.58-3.6,11.81-4.3c2.11-0.32,4.3-0.43,6.52-0.18c0.55,0.04,1.1,0.16,1.65,0.27
			c0.55,0.11,1.09,0.22,1.64,0.35l1.58,0.53l0.79,0.27l0.75,0.35l1.49,0.71c0.47,0.27,0.93,0.55,1.4,0.83
			c0.96,0.53,1.76,1.22,2.63,1.84c1.63,1.34,3.17,2.78,4.5,4.34c2.73,3.08,4.95,6.45,6.93,9.86c2,3.43,3.7,6.86,5.49,10.24
			l5.3,10.19c14.17,27.19,27.51,54.79,40.84,82.34c1.55,3.49,3.12,6.95,4.75,10.37c1.63,3.41,3.26,6.83,5.16,9.98
			c0.95,1.58,1.95,3.07,3.1,4.42c1.14,1.35,2.46,2.53,3.93,3.65c2.92,2.24,6.18,4.07,9.64,5.52c3.46,1.43,7.11,2.5,10.83,3.24
			c3.73,0.73,7.52,1.2,11.33,1.45c3.81,0.24,7.64,0.33,11.47,0.42c1.91,0.05,3.83,0.1,5.73,0.31c0.95,0.12,1.9,0.26,2.81,0.58
			C871.84,1375.14,872.79,1375.7,873,1376.68z M873,1376.68c-0.22-0.98-1.18-1.52-2.06-1.8c-0.91-0.3-1.86-0.43-2.81-0.54
			c-1.9-0.19-3.82-0.22-5.73-0.24c-3.82-0.01-7.65,0.11-11.49,0c-3.83-0.09-7.68-0.25-11.51-0.76c-3.83-0.48-7.66-1.23-11.39-2.42
			c-3.73-1.17-7.37-2.78-10.75-4.91c-1.68-1.05-3.36-2.28-4.83-3.73c-1.48-1.44-2.78-3.02-3.93-4.64
			c-4.58-6.5-8.08-13.34-11.7-20.12c-13.34-27.57-26.65-55.09-40.77-82.19l-5.3-10.18c-1.79-3.39-3.49-6.82-5.35-10
			c-1.86-3.2-3.89-6.25-6.24-8.9c-1.16-1.35-2.43-2.53-3.75-3.62c-0.69-0.48-1.34-1.05-2.06-1.44l-1.06-0.64l-1.11-0.52
			c-2.95-1.41-6.18-1.65-9.53-1.15c-3.32,0.53-6.73,1.78-9.64,3.51c-1.45,0.86-2.69,1.85-3.79,3.06c-1.11,1.2-2.1,2.65-3.24,4.26
			c-1.13,1.61-2.46,3.32-3.99,4.82c-0.76,0.76-1.57,1.45-2.41,2.12c-0.87,0.62-1.74,1.24-2.63,1.84c-3.67,2.28-7.94,3.51-12.01,4
			c-4.08,0.52-7.98,0.41-11.42,0.86c-1.7,0.25-3.3,0.58-4.64,1.26c-0.72,0.26-1.28,0.75-1.92,1.13c-0.3,0.22-0.55,0.51-0.84,0.75
			c-0.28,0.26-0.58,0.48-0.81,0.8c-2.04,2.29-3.15,5.43-3.54,8.84c-0.2,1.7-0.24,3.47-0.18,5.27c0.03,0.91,0.08,1.82,0.15,2.76
			c0.06,0.94,0.2,1.79,0.29,2.7c0.13,1.79,0.6,3.53,0.93,5.29c0.22,0.87,0.5,1.73,0.75,2.59l0.38,1.29l0.48,1.27
			c2.48,6.79,6.48,13.05,11.18,18.78c4.68,5.78,10.14,10.93,15.66,16.31c2.72,2.73,5.48,5.42,8.16,8.19
			c2.65,2.79,5.33,5.56,7.95,8.38c10.46,11.28,20.47,22.96,30.11,34.93c9.64,11.97,18.94,24.2,27.8,36.79
			c2.21,3.15,4.36,6.34,6.54,9.51c2.09,3.24,4.25,6.43,6.28,9.72l3.04,4.94c1.02,1.64,1.94,3.36,2.91,5.04l1.44,2.53l1.34,2.61
			c0.88,1.76,1.83,3.45,2.58,5.33l1.18,2.76c0.43,0.94,0.69,1.83,1.03,2.66c0.65,1.69,1.4,3.31,2.24,4.87
			c1.69,3.12,3.81,5.95,6.35,8.27c5.01,4.72,12.03,6.9,19.23,7.89c3.54,0.47,7.1,0.41,10.79,0.04c3.68-0.38,7.57-0.86,11.27-1.35
			c3.7-0.53,7.36-1.12,10.27-2.48c1.46-0.69,2.69-1.57,3.86-2.71c1.19-1.11,2.22-2.39,3.12-3.8c1.84-2.78,3.05-6.12,3.71-9.58
			c0.17-0.86,0.28-1.74,0.37-2.6l0.06-0.63c0.02-0.22,0.03-0.36,0.02-0.59l-0.02-1.28c-0.1-1.69-0.34-3.36-0.92-4.97
			c-1.1-3.24-3.29-6.4-5.02-10.02c-1.79-3.58-2.83-7.56-3.22-11.47c-0.44-3.87-0.45-7.84,0.24-11.7c0.66-3.85,2.08-7.56,4.15-10.83
			c2.04-3.3,4.82-6.05,7.83-8.4c1.5-1.19,3.07-2.28,4.62-3.41c0.77-0.57,1.54-1.14,2.21-1.82
			C872.57,1378.54,873.21,1377.66,873,1376.68z"/>
	</g>
	<g>
		<path class="st0" d="M862.28,1504.34c-1.17-3-5.57-14.31-1.53-26.55c3.39-10.27,8.88-9.52,11.23-19.4
			c2.14-8.97-0.5-17.49-2.04-22.47c-2.66-8.58-4.77-8.2-6.64-15.83c-0.98-4.02-3.18-13,1.02-21.96c1.44-3.07,4.53-9.66,11.23-11.23
			c5.53-1.3,11.99,1.18,15.32,5.62c5.06,6.75-1.08,12.71,2.04,26.55c1.47,6.53,2.83,5.18,8.17,18.89
			c5.42,13.92,3.41,13.76,7.15,20.43c3.42,6.1,5.46,6.87,13.79,19.4c3,4.51,4.51,6.8,5.11,8.68c3.33,10.45-2.65,20.56-4.09,22.98
			c-1.43,2.42-6.95,11.44-17.87,14.81c-6.14,1.89-11.35,1.19-16.34,0.51c-5.23-0.71-10.58-1.43-15.83-5.11
			C866.46,1515.08,863.95,1508.64,862.28,1504.34z"/>
		<path class="st1" d="M862.28,1504.34c-1.34-3.38-2.41-6.88-3.1-10.48c-0.7-3.6-1.04-7.32-0.8-11.1c0.24-3.77,1.01-7.58,2.79-11.23
			c0.9-1.8,2.08-3.51,3.23-4.95c1.15-1.46,2.1-2.74,2.76-4.07c1.4-2.55,2.35-5.79,2.55-9.07c0.23-3.29-0.1-6.66-0.82-10.01
			c-0.36-1.68-0.82-3.35-1.33-5.05c-0.52-1.75-1.03-3.35-1.66-4.9c-0.62-1.56-1.36-2.93-2.28-4.54c-0.94-1.61-1.89-3.61-2.49-5.51
			c-0.31-0.95-0.56-1.92-0.79-2.85c-0.22-0.89-0.43-1.84-0.63-2.78c-0.38-1.89-0.66-3.84-0.78-5.81c-0.26-3.94,0.14-8.03,1.41-11.9
			l0.5-1.44l0.6-1.41c0.4-0.91,0.8-1.72,1.26-2.62c0.92-1.75,2.01-3.5,3.39-5.11c1.37-1.61,3.06-3.08,5.06-4.13
			c1.99-1.06,4.24-1.69,6.45-1.81c4.43-0.23,8.7,1.14,12.21,3.71c1.74,1.31,3.3,2.91,4.47,4.94c0.28,0.52,0.52,1.07,0.77,1.61
			c0.21,0.56,0.37,1.14,0.54,1.71c0.11,0.57,0.21,1.15,0.29,1.73c0.03,0.55,0.07,1.12,0.08,1.66c0,2.16-0.31,4.04-0.52,5.82
			c-0.22,1.77-0.39,3.47-0.44,5.15c-0.1,3.33,0.37,6.71,1.2,9.91c0.42,1.57,1,2.77,1.89,4.39c0.88,1.6,1.77,3.32,2.56,5.02
			c1.59,3.42,2.96,6.85,4.25,10.33c0.63,1.75,1.26,3.5,1.82,5.31c0.56,1.79,1.07,3.66,1.51,5.41c0.44,1.77,0.86,3.15,1.56,4.61
			c0.71,1.46,1.58,3,2.49,4.39c1.8,2.75,4.28,5.57,6.46,8.58c2.22,2.98,4.3,6.04,6.33,9.09c1.01,1.53,2.03,3.04,3.03,4.71
			c0.5,0.84,1,1.71,1.46,2.77c0.5,1.15,0.67,2.13,0.96,3.14c0.9,4.08,0.7,8.28-0.23,12.17c-0.93,3.89-2.51,7.55-4.47,10.89
			c-1.93,3.37-4.41,6.52-7.31,9.22c-1.46,1.34-3.05,2.56-4.73,3.66c-1.69,1.08-3.49,2-5.35,2.76c-0.94,0.35-1.89,0.7-2.86,0.98
			c-0.97,0.28-1.95,0.52-2.94,0.72c-1.98,0.41-4.01,0.62-6,0.5c-1.98-0.14-3.9-0.44-5.74-0.79c-1.84-0.37-3.59-0.78-5.43-1.21
			c-3.64-0.89-7.4-2.2-10.58-4.35c-3.21-2.09-5.83-4.87-7.87-7.92C864.97,1511.12,863.57,1507.74,862.28,1504.34z M862.28,1504.34
			c1.29,3.39,2.88,6.73,5.19,9.52c2.29,2.79,5.25,4.96,8.47,6.3c3.23,1.36,6.66,1.83,10.19,2.03c1.76,0.11,3.62,0.19,5.39,0.28
			c1.77,0.09,3.49,0.11,5.15,0c1.65-0.12,3.27-0.16,4.87-0.43c1.6-0.25,3.15-0.77,4.67-1.34c1.5-0.62,2.96-1.36,4.34-2.24
			c1.37-0.9,2.68-1.9,3.9-3.02c2.43-2.27,4.51-4.89,6.2-7.84c1.73-2.93,3.05-6.04,3.81-9.24c0.76-3.19,0.88-6.44,0.21-9.48
			c-0.22-0.74-0.37-1.57-0.62-2.08c-0.26-0.62-0.66-1.33-1.09-2.05c-0.87-1.45-1.89-2.97-2.88-4.47c-2-3.01-4.01-5.97-6.15-8.83
			c-1.06-1.44-2.15-2.84-3.28-4.27c-1.12-1.43-2.31-2.95-3.38-4.6c-1.08-1.66-2.01-3.29-2.89-5.1c-0.89-1.82-1.53-3.94-1.96-5.7
			c-0.44-1.77-0.89-3.42-1.42-5.1c-0.52-1.68-1.12-3.35-1.72-5.02c-1.24-3.35-2.58-6.69-4.06-9.87c-0.75-1.6-1.52-3.11-2.4-4.71
			c-0.88-1.55-1.89-3.66-2.39-5.62c-1.01-3.84-1.53-7.74-1.42-11.7c0.06-1.96,0.26-3.89,0.48-5.73c0.23-1.84,0.48-3.57,0.47-5.05
			c0-1.5-0.27-2.65-0.91-3.77c-0.64-1.14-1.66-2.21-2.82-3.08c-2.35-1.74-5.43-2.7-8.28-2.54c-2.84,0.18-5.34,1.51-7.31,3.87
			c-1,1.15-1.86,2.51-2.63,3.98c-0.37,0.72-0.78,1.54-1.1,2.3l-0.47,1.11l-0.4,1.14c-2.08,6.13-1.18,13.09,0.8,19.62
			c0.51,1.57,1.12,2.88,2,4.42c0.89,1.55,1.89,3.39,2.61,5.22c0.74,1.82,1.33,3.7,1.85,5.44c0.54,1.79,1.04,3.63,1.45,5.51
			c0.81,3.76,1.22,7.71,0.94,11.69c-0.13,1.99-0.48,3.97-0.96,5.94c-0.46,1.96-1.18,4.02-2.38,5.82c-1.19,1.82-2.7,3.25-3.97,4.5
			c-1.28,1.26-2.45,2.36-3.42,3.69c-1.94,2.62-3.42,5.89-4.3,9.29C858.8,1489.97,859.57,1497.6,862.28,1504.34z"/>
	</g>
	<g>
		<path class="st0" d="M927.13,1465.53c-6.69-4.97-4.12-12.25-12.26-24.51c-3.43-5.17-4.86-5.34-6.64-9.7
			c-0.92-2.25-3.69-9.36-1.02-17.36c2.45-7.35,8.07-11.14,11.23-13.28c5.26-3.55,10.56-4.63,20.94-6.64c3-0.58,11.82-2.19,24-2.55
			c15.25-0.45,19.22,1.55,20.94,2.55c5.63,3.28,8.37,8.19,9.19,9.7c0.97,1.79,2.29,4.73,3.06,19.4c0.79,14.97-0.3,17.2-1.02,18.38
			c-2.81,4.62-7.17,5.06-15.32,8.17c-22.48,8.59-25.25,19.02-40.34,18.89C935.69,1468.56,931.16,1468.52,927.13,1465.53z"/>
		<path class="st1" d="M927.13,1465.53c-1.12-0.86-2.13-1.85-2.97-3c-0.81-1.17-1.45-2.45-2.03-3.75c-1.1-2.63-2.13-5.28-3.43-7.74
			c-1.29-2.46-2.82-4.74-4.48-6.88c-0.84-1.07-1.7-2.11-2.58-3.11c-0.87-1.02-1.79-1.89-2.8-2.95c-1.02-1.03-2.06-2.61-2.73-4.1
			c-0.69-1.51-1.21-2.87-1.69-4.38c-0.92-2.97-1.43-6.12-1.33-9.31c0.07-3.18,0.78-6.39,2.06-9.33c1.27-2.96,3.19-5.62,5.4-7.85
			c1.11-1.11,2.3-2.12,3.52-3.04c0.61-0.46,1.22-0.9,1.83-1.31l0.9-0.61l0.98-0.64c2.66-1.67,5.62-2.84,8.49-3.67
			c2.88-0.83,5.7-1.41,8.49-1.98l4.17-0.82c1.42-0.27,2.84-0.52,4.27-0.75c5.7-0.9,11.42-1.45,17.16-1.72
			c5.74-0.23,11.47-0.37,17.45,0.4c1.5,0.21,3.02,0.49,4.6,0.97c0.79,0.24,1.6,0.53,2.41,0.93c0.84,0.4,1.47,0.83,2.16,1.25
			c2.67,1.76,4.99,4,6.86,6.52c0.94,1.26,1.77,2.59,2.51,4c0.4,0.78,0.75,1.64,0.99,2.43c0.24,0.79,0.45,1.57,0.6,2.32
			c0.63,3.01,0.92,5.88,1.18,8.75c0.46,5.74,0.77,11.36,0.73,17.2c-0.03,1.47-0.07,2.94-0.23,4.49c-0.1,0.79-0.18,1.57-0.4,2.46
			c-0.1,0.44-0.24,0.91-0.43,1.41c-0.2,0.5-0.48,1.06-0.73,1.43c-0.91,1.49-2.22,2.91-3.68,3.94c-1.46,1.04-2.98,1.72-4.39,2.27
			c-2.83,1.09-5.45,1.88-8.02,2.87c-2.55,0.99-5.07,2.03-7.53,3.21c-1.23,0.59-2.42,1.24-3.63,1.86c-1.17,0.69-2.38,1.32-3.53,2.06
			c-1.16,0.71-2.33,1.43-3.46,2.23c-1.14,0.79-2.23,1.64-3.48,2.34c-2.47,1.39-5.03,2.87-7.9,3.94c-2.85,1.08-5.94,1.64-8.9,1.6
			c-0.74,0.04-1.47-0.02-2.2-0.08c-0.73-0.05-1.46-0.1-2.16-0.19c-1.41-0.16-2.84-0.31-4.25-0.56
			C932.14,1468.2,929.39,1467.23,927.13,1465.53z M927.13,1465.53c2.27,1.7,5.1,2.49,7.88,2.58c2.78,0.08,5.66-0.23,8.28-0.83
			c2.65-0.64,5.04-1.78,7.21-3.26l1.62-1.15c0.54-0.41,1.06-0.85,1.6-1.25c1.07-0.85,2.14-1.72,3.23-2.62
			c1.09-0.88,2.3-1.65,3.52-2.42c0.61-0.39,1.22-0.78,1.82-1.18l1.85-1.15c1.22-0.78,2.52-1.47,3.78-2.2c1.3-0.67,2.58-1.37,3.9-2
			c2.63-1.26,5.32-2.38,8.03-3.43c2.7-1.03,5.49-1.89,7.92-2.83c1.21-0.47,2.28-0.98,3.12-1.59c0.84-0.6,1.49-1.29,2.05-2.2
			c0.14-0.22,0.17-0.3,0.24-0.45c0.06-0.16,0.12-0.37,0.18-0.61c0.12-0.48,0.2-1.11,0.27-1.71c0.13-1.25,0.17-2.6,0.2-3.96
			c0.04-5.44-0.26-11.1-0.71-16.6c-0.24-2.74-0.54-5.5-1.06-8.01c-0.27-1.27-0.58-2.36-1.06-3.26c-0.57-1.09-1.24-2.17-1.99-3.16
			c-1.49-2.01-3.3-3.74-5.34-5.09c-1.11-0.72-1.87-1.13-3.03-1.46c-1.12-0.34-2.38-0.58-3.67-0.76c-5.22-0.69-10.83-0.58-16.34-0.35
			c-5.53,0.26-11.05,0.8-16.5,1.65c-1.36,0.21-2.72,0.45-4.07,0.71l-4.13,0.81c-2.74,0.55-5.44,1.12-7.99,1.86
			c-2.55,0.74-4.88,1.68-7,3.01l-0.79,0.51l-0.85,0.58c-0.56,0.38-1.09,0.76-1.61,1.16c-1.04,0.78-2,1.6-2.89,2.49
			c-1.75,1.77-3.19,3.77-4.15,6c-0.97,2.22-1.51,4.64-1.56,7.09c-0.08,2.45,0.32,4.95,1.06,7.36c0.37,1.18,0.86,2.46,1.39,3.5
			c0.55,1.05,1.15,1.79,1.97,2.91c0.8,1.11,1.69,2.41,2.45,3.69c0.8,1.27,1.41,2.64,2.06,3.96c1.23,2.7,2.16,5.53,2.83,8.35
			c0.71,2.82,1.08,5.64,1.82,8.35c0.38,1.35,0.88,2.66,1.6,3.87C925.03,1463.64,926.02,1464.66,927.13,1465.53z"/>
	</g>
	<g>
		<polygon class="st0" points="1057.34,1542.64 1018.02,1508.94 1005.77,1493.11 1005.77,1395.06 1021.6,1391.42 1054.28,1373.62 
			1071.13,1369.02 1090.02,1373.62 1107.9,1376.17 1113,1386.55 1110.45,1412.94 1094.62,1445.11 1094.62,1456.01 1096.66,1472.68 
			1099.73,1492.59 1098.19,1506.38 		"/>
		<path class="st1" d="M1057.34,1542.64l-9.96-7.66l-10.21-7.81c-6.89-5.23-13.88-10.67-20.93-16.16l-0.13-0.1l-0.25-0.3
			c-2.14-2.56-4.39-5.04-6.41-7.7c-1.03-1.31-2-2.67-3.02-3.99l-3.05-3.97l-0.63-0.82v-1.02v-98.04v-2.39l2.33-0.54l15.83-3.64
			l-0.76,0.29l32.68-17.81l0.31-0.17l0.34-0.09l16.85-4.6l0.75-0.2l0.75,0.18l18.89,4.6l-0.28-0.05l17.87,2.55l1.57,0.22l0.7,1.42
			l5.11,10.38l0.38,0.77l-0.08,0.85l-2.55,26.39l-0.05,0.54l-0.24,0.49l-15.83,32.17l0.31-1.32v10.91l-0.02-0.36l1.12,9.14
			c0.4,3.04,0.7,6.1,1.17,9.14l2.8,18.21l0.06,0.38l-0.04,0.41l-0.7,6.9c-0.27,2.3-0.65,4.58-1.02,6.87l-0.19,1.2l-0.74,0.6
			c-7.33,5.92-14.59,11.77-21.75,17.43C1071.16,1531.61,1064.15,1537.13,1057.34,1542.64z M1057.34,1542.64
			c6.81-6.58,13.42-13.14,19.88-19.53c6.45-6.43,12.81-12.66,19.1-18.83l-0.93,1.79c0.15-2.31,0.28-4.62,0.52-6.92l0.83-6.89
			l0.02,0.79l-2.81-18.3c-0.48-3.05-0.78-6.12-1.18-9.18l-1.13-9.19l-0.02-0.18v-0.18v-10.91v-0.7l0.31-0.63l15.83-32.17l-0.29,1.04
			l2.55-26.39l0.29,1.61l-5.11-10.38l2.27,1.65l-17.87-2.55l-0.14-0.02l-0.14-0.03l-18.89-4.6l1.5-0.02l-16.85,4.6l0.65-0.26
			l-32.68,17.81l-0.36,0.2l-0.4,0.09l-15.83,3.64l2.33-2.92v98.04l-0.63-1.84l3.08,3.95c1.02,1.32,2.1,2.6,3.11,3.92
			c2.07,2.62,3.91,5.41,5.85,8.13l-0.38-0.4c6.06,5.74,12.18,11.53,18.39,17.54l9.45,9.04
			C1050.83,1536.5,1054.06,1539.57,1057.34,1542.64z"/>
	</g>
	<g>
		<polygon class="st0" points="1059.38,1582.98 999.13,1578.89 960.32,1553.87 948.58,1533.45 931.21,1503.32 933.26,1481.36 
			951.47,1468.6 970.53,1461.45 983.3,1461.45 995.3,1475.23 1005.77,1515.06 1036.92,1542.64 1059.38,1556.42 1071.13,1569.7 
			1071.13,1578.89 		"/>
		<path class="st1" d="M1059.38,1582.98l-14.98-0.01l-15.09-0.12l-15.17-0.21c-2.54-0.05-5.08-0.03-7.62-0.16
			c-2.54-0.16-5.07-0.43-7.6-0.59l-0.77-0.05l-0.65-0.42l-38.81-25.02l-0.61-0.39l-0.36-0.63l-29.1-50.55l-0.48-0.83l0.09-0.95
			l2.04-21.96l0.13-1.38l1.14-0.8l18.21-12.76l0.31-0.22l0.36-0.13l19.07-7.15l0.51-0.19h0.54h12.77h1.37l0.9,1.03l12,13.79
			l0.46,0.53l0.18,0.68l10.47,39.83l-0.91-1.48l31.15,27.57l-0.42-0.31l5.62,3.45c1.88,1.14,3.8,2.21,5.64,3.4
			c1.83,1.21,3.63,2.49,5.44,3.73l5.43,3.75l0.39,0.27l0.14,0.18c3.68,4.63,7.36,9.27,11,13.93l0.37,0.48l-0.03,0.44l-0.55,9.19
			l-0.04,0.64l-0.52,0.14L1059.38,1582.98z M1059.38,1582.98l11.47-4.86l-0.55,0.78l-0.55-9.19l0.35,0.91
			c-4.19-4.18-8.34-8.4-12.49-12.62l0.54,0.45l-5.8-3.15c-1.93-1.06-3.88-2.08-5.79-3.17c-1.9-1.11-3.72-2.34-5.59-3.49l-5.62-3.45
			l-0.22-0.14l-0.2-0.17l-31.15-27.57l-0.68-0.6l-0.23-0.88L992.4,1476l0.64,1.21l-12-13.79l2.26,1.03h-12.77l1.05-0.19l-19.07,7.15
			l0.67-0.35l-18.21,12.76l1.27-2.18l-2.04,21.96l-0.39-1.78l29.11,50.56l-0.97-1.03l38.81,25.02l-1.42-0.47
			c2.49,0.17,4.98,0.25,7.46,0.43c2.48,0.21,4.96,0.57,7.45,0.86l14.95,1.83l15.04,1.93L1059.38,1582.98z"/>
	</g>
	<g>
		<path class="st0" d="M1075.38,1563.74l-2.04-21.11l8.51-17.16l13.62-8.37c0,0,13.96,1.02,14.98,0c1.02-1.02,21.11-0.34,22.47,0
			c1.36,0.34,8.17,2.38,10.21,5.11c2.04,2.72,17.36,12.94,19.4,14.64c2.04,1.7,11.23,11.91,11.23,11.91l3.4,10.89l-1.7,12.6
			c0,0-7.49,10.55-9.87,10.72c-2.38,0.17-14.3,5.96-16,6.3s-15.66,1.7-17.7,1.7s-18.89,0-18.89,0s-14.81-3.74-16.85-4.09
			c-2.04-0.34-13.28-3.91-13.28-3.91l-6.47-7.32L1075.38,1563.74z"/>
		<path class="st1" d="M1075.38,1563.74c-0.18-1.76-0.37-3.51-0.61-5.27c-0.24-1.75-0.5-3.5-0.81-5.25
			c-0.61-3.49-1.36-6.97-2.12-10.45l-0.05-0.24l0.2-0.57c1.07-3.03,2.16-6.06,3.3-9.06l1.77-4.47c0.58-1.49,1.3-2.92,2.06-4.32
			l0.46-0.85l0.67-0.39c2.31-1.33,4.55-2.77,6.83-4.15l6.81-4.18l0.82-0.5l0.97,0.07c3.66,0.25,7.41,0.46,10.97,0.44
			c0.86-0.01,1.79-0.04,2.41-0.12l0.17-0.03l0,0c0.01,0,0.01,0-0.09,0.03l-0.1,0.04l-0.2,0.1c-0.13,0.07-0.25,0.16-0.37,0.26
			c-0.05,0.05-0.11,0.11-0.15,0.15c0.08-0.07,0.16-0.15,0.25-0.22c0.17-0.14,0.36-0.26,0.56-0.37c0.1-0.05,0.2-0.1,0.29-0.15
			l0.11-0.04c0.15-0.05,0.3-0.1,0.45-0.15c0.48-0.13,0.79-0.17,1.09-0.21c0.31-0.05,0.56-0.06,0.84-0.09
			c2.08-0.17,3.95-0.18,5.87-0.19c3.81,0,7.58,0.09,11.38,0.26c0.95,0.04,1.9,0.09,2.9,0.17l0.81,0.08l0.24,0.03
			c0.11,0.01,0.29,0.05,0.44,0.08l0.45,0.12c0.51,0.14,0.99,0.29,1.47,0.44c1.91,0.63,3.78,1.32,5.67,2.31
			c0.95,0.5,1.9,1.05,2.88,1.84c0.25,0.21,0.5,0.44,0.74,0.67c0.25,0.26,0.5,0.56,0.74,0.84c0.09,0.09,0.16,0.16,0.23,0.25
			c0.08,0.09,0.27,0.25,0.39,0.37c1.18,1.08,2.68,2.22,4.13,3.31c2.94,2.2,5.99,4.35,9.05,6.5c1.55,1.1,3.02,2.11,4.68,3.35
			c0.43,0.32,0.95,0.79,1.29,1.12l1.06,1.05l1.99,2.07c2.6,2.76,5.13,5.53,7.65,8.32l0.44,0.48l0.2,0.63l3.4,10.89l0.2,0.64
			l-0.09,0.66l-1.7,12.6l-0.1,0.74l-0.43,0.59c-1.74,2.41-3.49,4.7-5.45,6.99c-1.01,1.14-1.98,2.26-3.36,3.42
			c-0.35,0.29-0.75,0.59-1.29,0.91l-0.46,0.24c-0.21,0.09-0.42,0.17-0.64,0.25c-0.27,0.08-0.69,0.15-0.91,0.17
			c-0.01,0.01-0.02,0.02-0.03,0.02c-0.16,0.02-0.92,0.26-1.49,0.47c-2.5,0.92-5.13,2.09-7.74,3.22c-1.32,0.57-2.62,1.15-4,1.72
			c-0.37,0.14-0.68,0.28-1.1,0.43l-0.3,0.11l-0.15,0.06l-0.24,0.07l-0.48,0.13c-0.16,0.04-0.25,0.05-0.38,0.07
			c-0.9,0.14-1.55,0.21-2.3,0.3c-2.89,0.33-5.74,0.61-8.6,0.88l-4.32,0.37c-0.73,0.06-1.44,0.11-2.26,0.15
			c-0.49,0.02-0.83,0.01-1.18,0.01h-1.07H1113h-0.37l-0.37-0.09l-7.55-1.89c-1.26-0.31-2.51-0.63-3.78-0.91
			c-1.26-0.28-2.54-0.52-3.76-0.86l-1.78-0.52c-0.85-0.23-1.41-0.45-2.07-0.68c-1.26-0.46-2.48-0.94-3.7-1.45
			c-2.43-1-4.82-2.07-7.22-3.15l-0.54-0.24l-0.14-0.2c-1.87-2.69-3.74-5.38-5.69-8l-0.12-0.16l0-0.12
			C1075.9,1571.7,1075.72,1567.72,1075.38,1563.74z M1075.38,1563.74c0.34,3.97,0.84,7.93,1.5,11.87l-0.12-0.28
			c2.36,2.26,4.8,4.45,7.24,6.64l-0.68-0.44l7.67,1.47l3.79,0.73c0.6,0.11,1.29,0.24,1.71,0.27l0.48,0.05l0.55,0.07l1,0.16
			c1.31,0.24,2.56,0.61,3.83,0.94c1.26,0.34,2.53,0.63,3.8,0.95l7.58,1.89l-0.74-0.09h17.16h1.07c0.36,0,0.74,0,0.96-0.01
			c0.61-0.03,1.33-0.08,2.02-0.13l4.23-0.36c2.83-0.26,5.67-0.54,8.46-0.86c0.67-0.08,1.44-0.17,1.96-0.25
			c0.13,0,0.78-0.26,1.4-0.51c1.26-0.52,2.57-1.1,3.88-1.66c2.64-1.14,5.24-2.31,8.1-3.37c0.78-0.26,1.37-0.52,2.62-0.75l0.49-0.07
			c-0.04-0.01-0.29,0.03-0.38,0.07c-0.05,0.01-0.1,0.03-0.14,0.05l0.01-0.01c0.07-0.04,0.25-0.16,0.45-0.33
			c0.82-0.68,1.76-1.7,2.63-2.71c1.76-2.05,3.49-4.31,5.1-6.54l-0.53,1.33l1.7-12.6l0.11,1.3l-3.4-10.89l0.63,1.11
			c-2.49-2.76-5.02-5.53-7.55-8.22l-1.9-1.98l-0.93-0.93c-0.33-0.32-0.5-0.48-0.82-0.72c-1.34-1.01-2.95-2.12-4.46-3.19
			c-3.06-2.16-6.14-4.33-9.19-6.61c-1.54-1.17-3.03-2.28-4.62-3.72c-0.21-0.2-0.38-0.34-0.62-0.6c-0.24-0.26-0.49-0.54-0.7-0.8
			c-0.07-0.06-0.12-0.13-0.19-0.21l-0.3-0.27c-0.47-0.39-1.15-0.79-1.85-1.16c-1.43-0.75-3.08-1.38-4.73-1.91
			c-0.41-0.13-0.83-0.26-1.22-0.37l-0.23-0.06c0.03,0.01,0.1,0.02,0.09,0.02l-0.1-0.01l-0.58-0.05c-0.86-0.07-1.79-0.11-2.71-0.16
			c-3.68-0.16-7.41-0.25-11.09-0.25c-1.82,0.01-3.7,0.03-5.36,0.16c-0.18,0.02-0.41,0.04-0.55,0.06c-0.17,0.02-0.32,0.05-0.29,0.04
			c0.04-0.01,0.08-0.02,0.12-0.04l0.03-0.02c0.07-0.03,0.15-0.06,0.22-0.1c0.15-0.08,0.29-0.17,0.41-0.28
			c0.06-0.05,0.12-0.11,0.18-0.17l-0.23,0.2c-0.16,0.13-0.33,0.25-0.51,0.35c-0.22,0.13-0.26,0.13-0.35,0.18l-0.26,0.11
			c-0.2,0.08-0.31,0.1-0.42,0.13l-0.34,0.08l-0.53,0.09c-1.24,0.16-2.19,0.17-3.2,0.19c-3.93,0.01-7.66-0.2-11.47-0.46l1.79-0.44
			l-6.81,4.18c-2.26,1.41-4.56,2.76-6.79,4.22l1.13-1.24c-0.66,1.45-1.36,2.89-2.19,4.26l-2.48,4.11c-1.7,2.72-3.45,5.42-5.21,8.11
			l0.15-0.81c-0.08,3.56-0.15,7.12-0.08,10.66c0.03,1.77,0.11,3.54,0.21,5.3C1075.08,1560.22,1075.22,1561.98,1075.38,1563.74z"/>
	</g>
	<g>
		<path class="st0" d="M1125.26,1483.4l74.72-40.85l27.57-18.38l15.66-1.7l5.79,15.32l1.7,25.19l-2.72,15.32l-5.11,16.68
			l-30.64,13.28l-8.17,12.6c0,0-2.38,4.77-4.77,6.47c-2.38,1.7-12.6,3.74-13.62,3.74s-19.74-3.06-19.74-3.06l-14.98-8.85
			l-21.11-17.7l-4.6-16V1483.4z"/>
		<path class="st1" d="M1125.26,1483.4l17.46-11.17l17.91-11.32c1.51-0.95,3-1.92,4.61-2.77l4.8-2.56l9.5-5.23l19.01-10.42
			l-0.22,0.14l27.57-18.38l0.61-0.41l0.73-0.08l15.66-1.7l2.31-0.25l0.82,2.17l5.79,15.32l0.16,0.42l0.03,0.44l1.7,25.19l0.02,0.37
			l-0.06,0.36l-2.72,15.32l-0.03,0.18l-0.05,0.17l-5.11,16.68l-0.41,1.32l-1.27,0.55l-30.64,13.28l1.32-1.12l-8.17,12.6l0.17-0.29
			c-0.93,1.78-1.86,3.34-3.12,4.98c-0.64,0.81-1.33,1.62-2.38,2.44c-1.26,0.91-2.23,1.2-3.16,1.57c-3.69,1.26-7.08,2.01-10.77,2.69
			c-0.23,0.04-0.47,0.08-0.75,0.12c-0.15,0.02-0.86,0.11-1.2,0.06c-0.49-0.04-0.63-0.07-0.89-0.1l-0.69-0.09l-2.65-0.39l-5.24-0.82
			l-10.45-1.68l-0.55-0.09l-0.49-0.29l-7.49-4.43c-1.25-0.74-2.5-1.48-3.76-2.19c-1.26-0.71-2.54-1.41-3.75-2.2l-0.33-0.21
			l-0.08-0.08l-10.03-9.48c-3.35-3.15-6.67-6.33-9.99-9.52l-0.36-0.35l-0.07-0.31l-1.75-8.16l-1.7-8.17l-0.01-0.03l0-0.01
			L1125.26,1483.4z M1125.26,1483.4l0.15,2.04l-0.01-0.04l2.9,7.83l2.84,7.84l-0.43-0.66c3.72,2.71,7.43,5.43,11.12,8.18l11.08,8.22
			l-0.41-0.29c1.28,0.68,2.5,1.46,3.74,2.23c1.24,0.76,2.48,1.5,3.73,2.23l7.49,4.43l-1.04-0.38l10.42,1.68l5.2,0.81l2.58,0.38
			l1.05,0.14c0.1,0.01-0.17,0.01,0.11-0.01l0.55-0.09c3.23-0.58,6.74-1.38,9.71-2.41c0.71-0.26,1.42-0.57,1.58-0.72
			c0.34-0.26,0.83-0.78,1.28-1.35c0.89-1.15,1.79-2.62,2.48-3.96l0.09-0.17l0.08-0.12l8.17-12.6l0.49-0.76l0.83-0.36l30.64-13.28
			l-1.68,1.87l5.11-16.68l-0.08,0.35l2.72-15.32l-0.04,0.73l-1.7-25.19l0.19,0.86l-5.79-15.32l3.13,1.92l-15.66,1.7l1.34-0.49
			l-27.57,18.38l-0.11,0.07l-0.11,0.06l-18.35,10l-9.18,4.98l-4.54,2.54c-1.51,0.85-3.13,1.58-4.74,2.33l-19.45,9.11L1125.26,1483.4
			z"/>
	</g>
	<g>
		<polygon class="st0" points="1115.21,1468.6 1105.34,1451.74 1103.3,1437.45 1109.26,1426.21 1115.21,1411.57 1125.26,1386.55 
			1138.02,1373.45 1151.98,1364.25 1172.07,1360.85 1189.43,1360.85 1207.13,1367.66 1220.07,1377.53 1227.21,1388.08 
			1227.21,1403.4 1219.73,1418.38 1185.34,1438.47 1148.58,1458.55 1135.98,1467.06 1125.26,1470.14 		"/>
		<path class="st1" d="M1115.21,1468.6l-5.49-7.91c-1.87-2.68-3.73-5.43-5.63-8.21l-0.1-0.15l-0.08-0.38
			c-1.02-4.72-1.99-9.44-2.96-14.17l-0.13-0.61l0.38-0.83l2.64-5.8c0.89-1.93,1.73-3.88,2.69-5.77l-0.13,0.28
			c0.66-1.65,1.4-3.28,2.08-4.92l2.02-4.95l4-9.91l7.96-19.84l0.22-0.55l0.41-0.43l12.77-13.1l0.23-0.23l0.27-0.18l13.96-9.19
			l0.53-0.35l0.62-0.11l20.08-3.4l0.25-0.04h0.25h17.36h0.56l0.52,0.2l17.7,6.81l0.4,0.15l0.34,0.26l12.94,9.87l0.39,0.3l0.27,0.41
			l7.15,10.55l0.52,0.76v0.92v15.32v0.71l-0.32,0.63l-7.49,14.98l-0.4,0.8l-0.77,0.45l-17.66,10.32
			c-5.89,3.43-11.76,6.9-17.67,10.29l-17.95,9.8l-4.48,2.45c-1.49,0.82-2.95,1.71-4.46,2.5c-3.05,1.52-6.17,2.92-9.25,4.39l0.2-0.12
			c-4.38,2.57-8.73,5.18-13.13,7.72l-0.3,0.17l-0.13,0.03l-10.93,2.35l-0.22,0.05l-0.11-0.03L1115.21,1468.6z M1115.21,1468.6
			c3.49,0.31,6.88,0.54,10.16,0.79l-0.33,0.02l10.51-3.81l-0.43,0.2c4-3.13,8.04-6.2,12.06-9.3l0.2-0.12
			c2.89-1.8,5.75-3.66,8.68-5.4c1.48-0.84,3.01-1.59,4.51-2.39l4.48-2.44l17.91-9.78c5.9-3.38,11.75-6.85,17.63-10.27l17.62-10.29
			l-1.17,1.25l7.49-14.98l-0.32,1.34v-15.32l0.52,1.68l-7.15-10.55l0.66,0.7l-12.94-9.87l0.74,0.42l-17.7-6.81l1.08,0.2h-17.36
			l0.5-0.04l-20.08,3.4l1.15-0.45l-13.96,9.19l0.5-0.41l-12.77,13.1l0.64-0.98l-7.97,19.85l-4.01,9.92l-2.01,4.96
			c-0.66,1.65-1.27,3.33-1.95,4.98l-0.07,0.17l-0.06,0.11c-1.02,1.86-2.17,3.65-3.27,5.46l-3.32,5.44l0.25-1.44
			c0.39,4.81,0.79,9.61,1.13,14.43l-0.18-0.53L1115.21,1468.6z"/>
	</g>
	<g>
		<polygon class="st0" points="911.3,1386.55 896.75,1369.02 888.32,1349.11 893.6,1326.89 906.08,1274.81 906.08,1189.64 
			888.32,1143.83 859.08,1076.42 834.7,1010.55 834.7,979.15 850.02,950.04 893.6,937.02 911.3,937.02 928.12,943.15 944.24,959.23 
			951.47,982.21 951.47,999.06 939.64,1077.19 941.94,1115.49 947.3,1169.87 951.47,1242.31 967.21,1297.02 980.24,1326.89 
			986.36,1354.47 986.36,1374.38 982.53,1386.55 		"/>
		<path class="st1" d="M911.3,1386.55l-15.01-17.15l-0.05-0.05l-0.04-0.09l-8.92-19.71l-0.14-0.31l0.08-0.39l8.02-37.36l8.15-37.33
			l-0.08,0.64c-0.14-7.1-0.33-14.19-0.31-21.29l0.07-21.29v-42.58l0.2,1.08l-17.41-44.9l-19.16-44.25l-9.6-22.12
			c-0.84-1.82-1.49-3.73-2.2-5.61l-2.09-5.66l-4.19-11.32l-16.75-45.27l-0.19-0.5v-0.54v-31.4v-0.74l0.35-0.66l15.32-29.11
			l0.59-1.12l1.21-0.36l43.58-13.02l0.42-0.13h0.44h17.7h0.53l0.5,0.18l16.82,6.13l0.62,0.23l0.47,0.47l16.11,16.08l0.52,0.52
			l0.22,0.7l7.23,22.98l0.14,0.44v0.46v16.85v0.23l-0.03,0.22l-11.83,78.13l0.03-0.63l1.24,20.63l0.62,10.31
			c0.24,3.44,0.33,6.88,0.73,10.31l4.06,41.2l1.01,10.3l0.59,10.34l1.19,20.68l2.38,41.36l-0.11-0.66l15.75,54.71l-0.13-0.37
			c2.17,4.98,4.34,9.96,6.55,14.92l3.28,7.46c1.06,2.5,2.13,5,3.15,7.51l0.13,0.33l0.04,0.21l5.54,27.71l0.06,0.3l0,0.21
			l-0.43,19.91l-0.01,0.34l-0.08,0.24l-4.09,12.08l-0.4,1.18l-1.18-0.03l-35.81-0.78L911.3,1386.55z M911.3,1386.55l71.23-1.65
			l-1.58,1.16l3.57-12.25l-0.09,0.58l-0.43-19.91l0.06,0.51l-6.72-27.44l0.18,0.54c-1.15-2.46-2.25-4.95-3.36-7.42l-3.23-7.48
			c-2.13-5-4.3-9.98-6.47-14.95l-0.08-0.18l-0.05-0.19l-15.75-54.71l-0.09-0.32l-0.02-0.34l-2.38-41.29l-1.19-20.65l-0.59-10.32
			l-1.01-10.3l-4.06-41.19c-0.4-3.43-0.5-6.89-0.74-10.33l-0.62-10.35l-1.24-20.69l-0.02-0.32l0.05-0.31l11.83-78.13l-0.03,0.45
			v-16.85l0.14,0.9l-7.23-22.98l0.74,1.22L926,945.27l1.09,0.7l-16.82-6.13l1.03,0.18h-17.7l0.86-0.13l-43.58,13.02l1.8-1.48
			l-15.32,29.11l0.35-1.4v31.4l-0.19-1.04l16.71,45.16l4.18,11.29l2.09,5.65c0.7,1.88,1.35,3.78,2.2,5.6l9.59,22.11l19.15,44.23
			l17.45,45l0.2,0.52v0.56v42.58l0.07,21.29c0.02,7.1-0.17,14.2-0.31,21.29l-0.01,0.38l-0.07,0.26l-19.35,73.91l-0.06-0.7
			l7.94,20.12l-0.09-0.15L911.3,1386.55z"/>
	</g>
	<g>
		<polygon class="st0" points="1015.47,1113.19 986.36,1024.34 996.85,974.55 1022.36,949.28 1056.83,949.28 1088.24,957.7 
			1098.96,981.45 1098.96,1015.91 1090.53,1037.36 1085.94,1072.59 1080.58,1123.91 1071.13,1166.04 1065.26,1225.79 
			1065.26,1275.57 1066.02,1296.25 1066.79,1325.36 1059.38,1354.47 1034.62,1378.21 1013.17,1386.55 996.85,1386.55 991.73,1356 
			986.36,1319.23 1020.07,1150.72 		"/>
		<path class="st1" d="M1015.47,1113.19c-2.49-7.39-4.87-14.8-7.45-22.17c-2.51-7.38-5.12-14.73-7.74-22.08l-16.01-43.91l-0.18-0.49
			l0.12-0.65l2.25-12.53l2.32-12.51c0.77-4.17,1.57-8.34,2.44-12.48l2.68-12.43l0.19-0.89l0.64-0.63l25.52-25.27l0.88-0.87h1.23
			h34.47h0.4l0.38,0.1l31.4,8.43l1.37,0.37l0.58,1.29l10.72,23.74l0.27,0.59v0.65v34.47v0.57l-0.21,0.53l-8.43,21.45l0.18-0.71
			l-2.81,21.58c-0.94,7.19-1.93,14.38-2.61,21.6l-4.52,43.3l-0.02,0.17l-0.04,0.17l-9.45,42.13l0.06-0.36l-5.87,59.74l0.01-0.29
			l0,49.74c0.29,8.28,0.66,16.54,0.88,24.85l0.66,24.9l0.01,0.42l-0.1,0.4l-7.4,29.11l-0.21,0.83l-0.62,0.59l-24.77,23.74
			l-0.43,0.41l-0.56,0.22l-21.45,8.34l-0.52,0.2h-0.56h-16.32h-2.54l-0.42-2.5l-2.82-16.82l-1.41-8.41c-0.47-2.8-0.96-5.6-1.35-8.42
			l-4.92-33.74l-0.07-0.51l0.1-0.51l8.43-42.13l4.21-21.06c1.37-7.03,2.67-14.07,4.25-21.06c3.13-13.98,6.33-27.94,9.64-41.89
			c3.27-13.95,6.61-27.89,9.7-41.87l-0.01,0.13c-0.6-6.27-1.32-12.53-1.98-18.8L1015.47,1113.19z M1015.47,1113.19l2.4,18.75
			c0.87,6.24,1.68,12.49,2.61,18.73l0.01,0.06l-0.01,0.08c-2.53,14.1-4.8,28.25-7.15,42.38c-2.3,14.14-4.73,28.26-7.21,42.37
			c-1.22,7.06-2.74,14.06-4.18,21.07l-4.21,21.06l-8.43,42.13l0.03-1.02l4.91,33.68c0.38,2.81,0.88,5.6,1.34,8.4l1.41,8.39
			l2.82,16.78l-2.96-2.5h16.32l-1.09,0.2l21.45-8.34l-0.99,0.63l24.77-23.74l-0.83,1.43l7.4-29.11l-0.09,0.82l-0.65-24.88
			c-0.22-8.29-0.59-16.62-0.88-24.92l0-49.85v-0.15l0.01-0.15l5.87-59.74l0.02-0.18l0.04-0.18l9.45-42.13l-0.06,0.34l4.53-43.36
			c0.68-7.23,1.68-14.44,2.62-21.64l2.82-21.62l0.05-0.37l0.13-0.34l8.43-21.45l-0.21,1.1v-34.47l0.27,1.23l-10.72-23.74l1.96,1.66
			l-31.4-8.43l0.78,0.1h-34.47l2.11-0.87l-25.5,25.29l0.83-1.52l-2.56,12.46c-0.87,4.15-1.82,8.28-2.8,12.41l-2.92,12.38l-3,12.37
			l-0.06-1.14l13.1,44.94c2.23,7.46,4.48,14.92,6.81,22.34C1010.64,1098.38,1013.11,1105.77,1015.47,1113.19z"/>
	</g>
	<g>
		<polygon class="st0" points="1151.04,1080.25 1141.09,1058.81 1141.09,1038.13 1159.47,1013.62 1180.92,1003.66 1216.92,1009.02 
			1232.24,1018.21 1232.24,1048.08 1227.21,1093.28 1210.02,1141.53 1186.66,1189.64 1180.15,1215.64 1180.15,1257.19 
			1181.68,1300.85 1174.79,1333.02 1165.26,1349.11 1134.19,1360.85 1098.96,1360.85 1079.04,1352.17 1079.04,1322.3 
			1085.94,1289.36 1098.96,1270.21 1138.02,1146.89 1155.64,1093.28 		"/>
		<path class="st1" d="M1151.04,1080.25l-5.04-10.7c-1.66-3.57-3.42-7.1-5.13-10.65l-0.02-0.04l0-0.06
			c-0.05-3.45-0.13-6.89-0.23-10.34c-0.1-3.45-0.17-6.89-0.31-10.34l-0.01-0.23l0.17-0.24l17.44-25.22l0.24-0.35l0.5-0.26
			l10.54-5.37c3.51-1.79,7.04-3.56,10.57-5.31l0.67-0.33l0.89,0.11l9.04,1.09c3.01,0.4,6.01,0.8,9.01,1.27
			c5.99,0.93,11.99,1.88,17.99,2.75l0.59,0.09l0.52,0.31l15.32,9.19l1.46,0.87v1.7v29.87v0.17l-0.02,0.17l-5.02,45.19l-0.04,0.35
			l-0.12,0.33l-17.19,48.26l-0.06,0.16l-0.07,0.15l-23.36,48.11l0.21-0.58l-6.51,26l0.09-0.73l0,21.28
			c0.02,7.09-0.04,14.19,0.04,21.28l1.49,42.54l0.01,0.37l-0.08,0.36l-6.89,32.17l-0.1,0.48l-0.25,0.42l-9.53,16.08l-0.54,0.9
			l-0.98,0.37l-31.06,11.74l-0.51,0.19h-0.55h-35.23h-0.63l-0.57-0.25l-19.91-8.68l-1.8-0.79v-1.97v-29.87v-0.31l0.06-0.3
			l6.89-32.94l0.12-0.58l0.33-0.49l13.02-19.15l-0.38,0.78l14.03-44.29l7.01-22.14c2.36-7.37,4.49-14.82,7.08-22.12
			c2.53-7.32,5.08-14.63,7.69-21.92c2.58-7.3,5.23-14.58,7.96-21.84c5.42-14.52,10.71-29.08,15.69-43.74l0,0.05L1151.04,1080.25z
			 M1151.04,1080.25l4.67,13l0.01,0.02l-0.01,0.03c-4.68,14.76-9.05,29.62-13.3,44.51l-3.18,11.17l-3.09,11.2
			c-2.06,7.47-4.19,14.91-6.33,22.36c-2.09,7.46-4.63,14.77-6.95,22.16l-7.01,22.14l-14.02,44.27l-0.13,0.42l-0.25,0.36
			l-13.02,19.15l0.46-1.07l-6.89,32.94l0.06-0.61v29.87l-1.8-2.75l19.91,8.68l-1.2-0.25h35.23l-1.06,0.19l31.06-11.74l-1.52,1.28
			l9.53-16.08l-0.35,0.9l6.89-32.17l-0.06,0.73l-1.5-42.64c-0.07-7.11-0.02-14.22-0.04-21.34l0-21.34v-0.37l0.09-0.36l6.51-26
			l0.08-0.3l0.14-0.28l23.36-48.11l-0.13,0.3l17.19-48.26l-0.16,0.68l5.02-45.19l-0.02,0.33v-29.87l1.46,2.57l-15.32-9.19l1.1,0.39
			c-6-0.91-12.01-1.75-18.01-2.61c-3-0.42-6-0.91-8.99-1.41l-8.96-1.59l1.56-0.23c-3.62,1.57-7.24,3.12-10.88,4.65l-10.9,4.59
			l0.74-0.6l-19.33,23.8l0.16-0.47c-0.14,3.45-0.21,6.89-0.31,10.34c-0.11,3.45-0.19,6.89-0.23,10.34l-0.02-0.1
			c1.61,3.6,3.17,7.22,4.83,10.8L1151.04,1080.25z"/>
	</g>
	<g>
		<path class="st0" d="M1219.98,1369.02l-28.34-16.09l-8.43-31.4l18.38-41.36l68.94-123.32v-41.36l-3.83-19.15l-1.53-37.53
			l13.79-13.79h28.34l34.47,9.19l9.96,18.38v29.11l-33.7,60.08l-9.19,31.07l-11.49,33.7c0,0-9.19,21.45-10.72,23.74
			c-1.53,2.3-6.13,16.09-7.66,19.91c-1.53,3.83-7.66,16.09-7.66,16.09s-3.83,9.96-3.83,13.02s0,17.62,0,21.45
			c0,3.83,0,18.97,0,22.13s4.6,10.05,0,13.11s-16.77,13.02-16.77,13.02l-18.47,3.83L1219.98,1369.02z"/>
		<path class="st1" d="M1219.98,1369.02l-7.11-3.98c-2.37-1.32-4.73-2.67-7.12-3.95l-7.16-3.89c-2.38-1.31-4.8-2.56-7.2-3.83
			l-0.17-0.09l-0.07-0.21c-0.79-2.59-1.55-5.2-2.36-7.78l-2.41-7.77l-4.88-15.52l-0.17-0.53l0.26-0.65l4.17-10.53l4.22-10.51
			l4.29-10.48l2.21-5.21l2.31-5.16l0.07-0.15l0.06-0.11c2.93-5.11,5.81-10.24,8.67-15.39l8.62-15.41l17.23-30.83l34.47-61.66
			l-0.38,1.46v-41.36l0.06,0.59l-3.83-19.15l-0.05-0.23l-0.01-0.24l-1.53-37.53l-0.05-1.31l0.93-0.93l13.79-13.79l0.88-0.88h1.24
			h28.34h0.39l0.38,0.1l34.47,9.19l1.25,0.33l0.62,1.14l9.96,18.38l0.36,0.67v0.76v29.11v0.78l-0.38,0.68l-33.7,60.08l0.26-0.62
			l-4.83,16.33l-2.42,8.17l-1.21,4.08c-0.4,1.36-0.79,2.73-1.27,4.06l-10.99,32.24l-0.04,0.11l-0.04,0.1
			c-2.16,5.01-4.32,10-6.55,14.99c-1.13,2.5-2.22,4.96-3.49,7.52c-0.18,0.35-0.3,0.62-0.53,1.02l-0.36,0.61l-0.15,0.27
			c-0.2,0.36-0.48,0.98-0.72,1.55c-0.5,1.18-0.98,2.42-1.45,3.68c-0.95,2.51-1.86,5.06-2.77,7.61c-0.94,2.56-1.76,5.11-2.96,7.83
			c-2.29,5.09-4.7,9.92-7.13,14.83l0.12-0.26c-1.3,3.47-2.63,7.18-3.37,10.55c-0.09,0.42-0.15,0.79-0.19,1.11l-0.01,0.17
			c0,0.06-0.01,0.08-0.01,0.23l0.01,0.72l0.01,2.89c0.01,1.93-0.05,3.85-0.07,5.78c-0.23,7.71-0.45,15.41-0.76,23.12l-0.43,11.31
			c0.06,0.7,0.32,1.62,0.56,2.53c0.25,0.92,0.53,1.88,0.74,2.9c0.21,1.01,0.39,2.07,0.34,3.22c-0.04,1.14-0.31,2.39-1.03,3.45
			c-0.73,1.05-1.87,1.72-2.57,2.16c-0.8,0.51-1.59,1.05-2.37,1.59c-1.58,1.09-3.14,2.21-4.7,3.34c-3.12,2.25-6.19,4.58-9.25,6.92
			l-0.1,0.08l-0.1,0.02c-3.1,0.54-6.19,1.1-9.28,1.7c-3.09,0.59-6.18,1.15-9.27,1.76l-0.02,0l-0.02-0.01L1219.98,1369.02z
			 M1219.98,1369.02l12.28,3.76l-0.04,0c3.07-0.66,6.13-1.38,9.2-2.07c3.07-0.69,6.13-1.39,9.19-2.13l-0.2,0.09l8.8-7.53
			c1.48-1.25,2.96-2.49,4.46-3.71c0.76-0.61,1.52-1.22,2.3-1.82c0.88-0.65,1.39-1.06,1.74-1.63c0.62-1.16,0.43-2.84-0.11-4.55
			c-0.25-0.85-0.58-1.73-0.91-2.64c-0.33-0.93-0.7-1.83-0.93-3.04c-0.04-0.31-0.09-0.72-0.1-0.97l-0.03-0.72l-0.06-1.44l-0.12-2.89
			l-0.22-5.78c-0.31-7.71-0.53-15.41-0.76-23.12c-0.03-1.93-0.09-3.85-0.07-5.78l0.01-2.89l0.01-0.72c0-0.09,0.01-0.32,0.02-0.49
			l0.04-0.56c0.08-0.63,0.19-1.21,0.31-1.73c0.48-2.11,1.11-3.96,1.72-5.86c0.63-1.88,1.28-3.71,1.99-5.57l0.05-0.12l0.07-0.14
			c2.39-4.83,4.83-9.74,7-14.56c1-2.26,1.87-4.89,2.8-7.43c0.92-2.56,1.83-5.13,2.81-7.71c0.49-1.29,0.99-2.58,1.55-3.91
			c0.3-0.68,0.56-1.31,1.01-2.14l0.51-0.88c0.11-0.18,0.27-0.53,0.41-0.78c1.15-2.31,2.27-4.82,3.37-7.27
			c2.21-4.94,4.37-9.92,6.51-14.9l-0.08,0.21l10.95-32.13c0.48-1.33,0.87-2.69,1.27-4.05l1.2-4.07l2.41-8.14l4.81-16.27l0.1-0.32
			l0.16-0.29l33.7-60.08l-0.38,1.47v-29.11l0.36,1.43l-9.96-18.38l1.86,1.47l-34.47-9.19l0.77,0.1h-28.34l2.12-0.88l-13.79,13.79
			l0.88-2.24l1.53,37.53l-0.06-0.47l3.83,19.15l0.06,0.29v0.3v41.36v0.78l-0.38,0.68l-34.47,61.66l-17.23,30.83l-8.62,15.41
			c-2.88,5.13-5.74,10.28-8.56,15.44l0.13-0.25l-2.28,5.18l-2.39,5.13l-4.9,10.2l-4.97,10.17l-5.02,10.15l0.09-1.18l3.55,15.88
			l1.8,7.93c0.59,2.65,1.24,5.28,1.85,7.92l-0.24-0.31c2.32,1.4,4.63,2.84,6.97,4.21l7.01,4.16c2.33,1.4,4.7,2.73,7.05,4.09
			L1219.98,1369.02z"/>
	</g>
	<g>
		<path class="st0" d="M827.04,764.68l-10.72-33.7l-7.66-13.79v-30.64l9.19-8.43l16.85,3.06l6.13,3.83l20.68-0.77l8.43-6.13
			l14.55,6.89c0,0,8.43,10.72,9.96,13.02c1.53,2.3,1.53,8.43,0,13.79c-1.53,5.36-6.13,13.02-6.89,16.09
			c-0.77,3.06-3.06,13.79-3.06,13.79v16.09l1.53,22.21l9.57,55.91l5.74,32.94l18.38,26.04l5.36,7.66v14.55v8.43h-19.15
			c0,0-15.32,3.06-19.15,3.83s-6.89,1.53-11.49,3.06c-4.6,1.53-16.09,9.19-16.09,9.19s-5.36,10.72-9.19,8.43
			c-3.83-2.3-8.43-1.53-11.49-0.77c-3.06,0.77-9.19,1.09-9.19,1.09l-9.19-4.15c0,0-4.6,0.77-6.89-1.53s-4.6-13.02-4.6-13.02
			l7.66-23.74l11.49-51.32l3.06-55.15L827.04,764.68z"/>
		<path class="st1" d="M827.04,764.68l-2.74-8.41c-0.9-2.81-1.85-5.6-2.81-8.39c-0.96-2.79-1.88-5.59-2.89-8.36l-2.97-8.32
			l0.06,0.13l-8.28-13.44l-0.16-0.26l-0.02-0.44c-0.49-10.21-0.99-20.43-1.32-30.64l-0.04-1.12l0.93-0.91l4.46-4.37
			c0.74-0.73,1.49-1.45,2.25-2.16l2.27-2.14l1.1-1.04l1.54,0.28c2.81,0.5,5.61,1.06,8.41,1.59l8.42,1.55l0.57,0.1l0.48,0.3
			l6.13,3.83l-1.7-0.45l20.68-0.77l-1.65,0.57l8.43-6.13l1.44-1.05l1.61,0.76l14.55,6.89l0.64,0.3l0.43,0.55
			c3.21,4.11,6.38,8.12,9.54,12.42l0.31,0.44l0.16,0.23c0.05,0.07,0.1,0.15,0.18,0.29c0.14,0.24,0.29,0.5,0.4,0.73l0.29,0.68
			c0.31,0.87,0.51,1.7,0.62,2.47c0.24,1.56,0.28,3.01,0.22,4.45c-0.12,2.87-0.59,5.64-1.44,8.41c-0.88,2.76-2.02,5.17-3.15,7.56
			c-1.11,2.35-2.34,4.72-3.2,6.84c-0.08,0.23-0.2,0.52-0.25,0.7l-0.09,0.31l-0.1,0.47l-0.42,1.88l-0.84,3.76l-1.67,7.52l0.07-0.63
			l0,9.53c0.03,3.18-0.11,6.35,0.21,9.52l1.31,19.04l-0.04-0.3l7.61,44.43l7.71,44.41l-0.5-1.21l23.75,33.71l0.54,0.77v0.95v22.98v3
			h-3h-19.15l0.59-0.06l-12.25,2.45l-6.13,1.23c-2.04,0.4-3.98,0.82-5.93,1.33c-1.94,0.5-3.86,1.1-5.8,1.74
			c-1.55,0.53-3.37,1.5-5.11,2.46c-3.51,1.98-7.03,4.19-10.44,6.43l1.02-1.15c-0.75,1.46-1.51,2.73-2.39,4.05
			c-0.89,1.3-1.84,2.59-3.13,3.84c-0.66,0.62-1.38,1.25-2.44,1.8c-0.52,0.27-1.16,0.51-1.91,0.64c-0.76,0.11-1.65,0.1-2.47-0.19
			c-0.41-0.11-0.79-0.34-1.1-0.5l-0.33-0.18c-0.21-0.13-0.46-0.21-0.69-0.32c-0.48-0.17-0.98-0.34-1.52-0.42
			c-1.07-0.2-2.24-0.22-3.45-0.09c-0.61,0.06-1.23,0.16-1.86,0.29c-0.31,0.06-0.63,0.13-0.95,0.21l-1.13,0.26
			c-3.19,0.61-6.03,0.81-9.04,1.01l-0.71,0.05l-0.68-0.31l-9.19-4.15l1.73,0.23c-0.69,0.1-1.14,0.13-1.71,0.15
			c-0.54,0.02-1.09,0.01-1.64-0.03c-1.11-0.09-2.27-0.28-3.49-0.77c-1.2-0.49-2.49-1.29-3.41-2.62c-0.73-1.08-1.14-2.02-1.53-2.94
			c-0.75-1.83-1.29-3.59-1.79-5.35c-0.5-1.77-0.94-3.5-1.34-5.33l-0.17-0.78l0.25-0.77l7.66-23.74l-0.07,0.27l5.74-25.66l2.87-12.83
			c0.94-4.28,1.79-8.58,2.85-12.84l-0.07,0.49c0.36-4.59,0.8-9.18,1.2-13.76l1.34-13.76l2.79-27.5l0,0.12
			c-0.18-3.07-0.43-6.14-0.64-9.21c-0.2-3.08-0.47-6.14-0.73-9.22c-0.26-3.07-0.5-6.15-0.82-9.21L827.04,764.68z M827.04,764.68
			l1.02,9.18c0.32,3.06,0.71,6.12,1.1,9.17c0.38,3.06,0.75,6.11,1.19,9.17c0.43,3.05,0.82,6.11,1.28,9.17l0,0.03l0,0.09l-0.28,27.64
			l-0.19,13.82c-0.11,4.6-0.18,9.21-0.33,13.81l-0.01,0.18l-0.06,0.31c-0.86,4.3-1.93,8.55-2.9,12.82l-2.87,12.83l-5.74,25.66
			l-0.03,0.13l-0.04,0.13l-7.66,23.74l0.08-1.55c0.36,1.63,0.79,3.32,1.25,4.95c0.46,1.63,0.97,3.26,1.56,4.69
			c0.29,0.71,0.63,1.38,0.89,1.77c0.07,0.15,0.34,0.35,0.76,0.52c0.43,0.17,1.02,0.3,1.67,0.35c0.33,0.02,0.66,0.03,1.01,0.02
			c0.32-0.01,0.74-0.05,0.93-0.07l0.93-0.14l0.8,0.36l9.19,4.15l-1.39-0.26c2.73-0.17,5.66-0.41,8.13-0.89l0.97-0.23
			c0.38-0.09,0.77-0.18,1.16-0.25c0.78-0.16,1.59-0.29,2.41-0.37c1.64-0.17,3.39-0.17,5.16,0.15c0.88,0.15,1.77,0.42,2.64,0.75
			c0.42,0.19,0.86,0.36,1.27,0.59l0.62,0.34c0.02-0.02-0.07-0.03-0.12-0.06c-0.14-0.03-0.28-0.06-0.33-0.03
			c-0.04,0,0.01,0,0.13-0.06c0.23-0.1,0.63-0.41,1.01-0.78c1.58-1.54,3.13-4.01,4.3-6.25l0.39-0.74l0.63-0.42
			c3.55-2.34,7.09-4.57,10.83-6.68c1.9-1.04,3.75-2.09,6.15-2.92c2.02-0.67,4.08-1.3,6.17-1.85c2.09-0.55,4.22-1,6.27-1.4l6.13-1.23
			l12.25-2.45l0.29-0.06h0.3h19.15l-3,3v-22.98l0.54,1.72l-23.74-33.69l-0.39-0.55l-0.11-0.66l-7.71-44.42l-7.61-44.44l-0.03-0.15
			l-0.01-0.15l-1.32-19.22c-0.32-3.2-0.18-6.42-0.21-9.64l0-9.65l0-0.33l0.07-0.3l1.7-7.63l0.85-3.82l0.42-1.91l0.11-0.48l0.18-0.62
			c0.13-0.44,0.26-0.75,0.4-1.13c1.09-2.68,2.27-4.9,3.37-7.23c1.08-2.29,2.15-4.59,2.83-6.76c0.67-2.17,1.08-4.55,1.17-6.85
			c0.04-1.15,0-2.29-0.16-3.29c-0.07-0.51-0.2-0.95-0.31-1.29c-0.03-0.07-0.06-0.14-0.09-0.21c-0.03-0.05-0.05-0.07-0.06-0.12
			c0-0.01-0.03-0.06-0.08-0.12l-0.12-0.17l-0.25-0.36c-2.97-4.04-6.22-8.16-9.38-12.21l1.07,0.86l-14.55-6.89l3.05-0.29l-8.43,6.13
			l-0.74,0.54l-0.91,0.03l-20.68,0.77l-0.92,0.03l-0.78-0.49l-6.13-3.83l1.05,0.41l-8.43-1.51c-2.81-0.49-5.63-0.96-8.44-1.47
			l2.63-0.76l-2.33,2.07c-0.78,0.69-1.56,1.38-2.35,2.05l-4.74,4.06l0.89-2.03c-0.33,10.21-0.83,20.43-1.32,30.64l-0.18-0.69
			l7.04,14.13l0.05,0.09l0.01,0.04l2.39,8.53c0.78,2.84,1.65,5.66,2.47,8.49c0.83,2.83,1.66,5.65,2.55,8.46L827.04,764.68z"/>
	</g>
	<g>
		<path class="st0" d="M1016.24,728.68l-8.43-20.68l-6.13-22.98l3.83-16.09c0,0,67.4-0.77,69.7,0c2.3,0.77,13.79,9.19,13.79,9.19
			l3.06,13.79l-7.66,22.98l-5.36,18.38l-3.83,137.87l10.72,28.34l13.02,20.68l4.6,16.85l-9.19,12.26l-7.66,1.09l-13.79-1.09
			l-9.19-5.36l-11.11-1.53h-18c0,0-9.19-0.77-10.72,3.06c-1.53,3.83-6.89,2.94-11.49,4.92c-4.6,1.98-16.09,0-16.09,0
			s-9.96-2.62-9.96-4.92c0-2.3,0-16.85,0-16.85v-15.32l32.94-59.74L1016.24,728.68z"/>
		<path class="st1" d="M1016.24,728.68l-9.18-20.37l-0.01-0.02l-0.02-0.08l-6.87-22.78l-0.1-0.34l0.09-0.44l3.34-16.2l0.32-1.54
			l1.68-0.06l21.58-0.82c7.19-0.25,14.39-0.59,21.59-0.48c7.21,0.07,14.39,0.01,21.65,0.14c0.9,0.01,1.82,0.04,2.77,0.08l0.7,0.03
			c0.25,0.01,0.41,0,0.84,0.06c0.75,0.11,1.51,0.13,2.2,0.5l0.26,0.12l0.18,0.1l0.36,0.19c0.25,0.13,0.47,0.26,0.68,0.38
			c0.43,0.25,0.84,0.5,1.24,0.75c0.8,0.5,1.57,1.01,2.33,1.52c3.04,2.05,5.98,4.14,8.92,6.29l0.91,0.66l0.25,1.11l3.06,13.79
			l0.18,0.81l-0.26,0.79l-6.84,20.52l-0.85,2.57l-0.76,2.59l-1.51,5.19l-3.03,10.38l0.12-0.76l-3.83,137.87l-0.19-1.14l10.72,28.34
			l-0.27-0.54l13.02,20.68l0.24,0.38l0.12,0.43l4.6,16.85l0.39,1.42l-0.88,1.17l-9.19,12.26l-0.75,1l-1.23,0.18l-7.66,1.09
			l-0.33,0.05l-0.33-0.03l-13.79-1.09l-0.68-0.05l-0.59-0.35l-9.19-5.36l1.1,0.38l-11.11-1.53l0.41,0.03h-18h-0.08l-0.17-0.01
			c-1.4-0.09-3.06-0.07-4.46,0.12c-0.73,0.08-1.38,0.25-1.97,0.41c-0.56,0.19-0.99,0.43-1.18,0.58c-0.01,0.04-0.03,0.06-0.06,0.07
			c-0.03,0.02,0.02,0.02,0,0.01c0.04-0.15-0.17,0.32-0.32,0.62c-0.15,0.32-0.33,0.63-0.56,0.93c-0.86,1.22-2.1,2.06-3.18,2.54
			c-1.11,0.5-2.09,0.73-3.01,0.95c-0.93,0.21-1.77,0.36-2.56,0.53c-0.8,0.16-1.53,0.34-2.21,0.54c-0.34,0.11-0.67,0.21-0.97,0.34
			l-0.62,0.23l-0.85,0.29c-2.17,0.61-4.03,0.66-5.89,0.7c-3.7,0.01-7.13-0.36-10.71-0.92l-0.12-0.02l-0.13-0.04
			c-1.9-0.52-3.66-1.08-5.5-1.78c-0.92-0.35-1.84-0.74-2.8-1.24c-0.48-0.25-0.98-0.53-1.51-0.91c-0.53-0.41-1.14-0.78-1.85-1.93
			c-0.08-0.13-0.17-0.31-0.25-0.51c-0.08-0.21-0.15-0.37-0.2-0.62c-0.05-0.25-0.08-0.51-0.09-0.76l0-0.22v-0.68v-1.36v-2.72v-5.45
			v-21.8v-0.77l0.37-0.68l32.94-59.74l-0.37,1.52l-0.4-15.54c-0.18-5.18-0.35-10.35-0.28-15.55l0.17-31.19l0.16-31.27
			C1015.99,749.63,1016.15,739.16,1016.24,728.68z M1016.24,728.68c0.6,10.33,1.27,20.67,1.82,31.04l1.69,31.15l1.7,31.24
			c0.32,5.21,0.41,10.44,0.49,15.67l0.37,15.67l0.02,0.81l-0.39,0.71l-32.94,59.74l0.37-1.45v21.8v5.45v2.72v1.36v0.68
			c0,0.03,0,0.17,0,0.12c0-0.14-0.01-0.29-0.05-0.42c-0.04-0.14-0.05-0.2-0.09-0.3l-0.1-0.21c-0.24-0.36-0.13-0.15,0.08-0.03
			c0.21,0.15,0.5,0.32,0.82,0.49c0.65,0.34,1.41,0.66,2.19,0.96c1.55,0.6,3.26,1.14,4.87,1.57l-0.26-0.06
			c3.15,0.5,6.52,0.85,9.64,0.83c1.54-0.02,3.13-0.13,4.24-0.46l0.36-0.13c0.08-0.03,0.08-0.02,0.22-0.07l0.36-0.14
			c0.49-0.2,0.96-0.36,1.44-0.5c0.95-0.28,1.88-0.5,2.75-0.68c1.74-0.35,3.37-0.63,4.31-1.07c0.46-0.22,0.66-0.4,0.79-0.58
			c0.04-0.04,0.08-0.09,0.1-0.16c0.04-0.08,0.01,0,0.27-0.52c0.2-0.37,0.41-0.78,0.67-1.07c0.26-0.3,0.53-0.59,0.81-0.86
			c1.13-0.95,2.26-1.44,3.31-1.79c1.04-0.31,2.06-0.54,3.02-0.65c1.98-0.25,3.75-0.28,5.75-0.16l-0.25-0.01h18h0.21l0.2,0.03
			l11.11,1.53l0.59,0.08l0.51,0.3l9.19,5.36l-1.28-0.4l13.79,1.09l-0.66,0.02l7.66-1.09l-1.98,1.17l9.19-12.26l-0.49,2.59
			l-4.6-16.85l0.36,0.81l-13.02-20.68l-0.16-0.26l-0.11-0.28l-10.72-28.34l-0.21-0.55l0.02-0.59l3.83-137.87l0.01-0.39l0.11-0.37
			l3.05-10.44l1.52-5.22l0.76-2.61l0.85-2.58l6.87-20.62l-0.08,1.6l-3.06-13.79l1.15,1.77c-2.87-2.09-5.79-4.18-8.71-6.14
			c-0.73-0.49-1.46-0.97-2.18-1.43c-0.36-0.23-0.72-0.45-1.07-0.65c-0.18-0.11-0.35-0.21-0.5-0.28l-0.23-0.13l-0.11-0.06l-0.05-0.02
			c-0.1-0.11-0.29,0.02-0.42-0.02c-0.01-0.01-0.3-0.02-0.5-0.03l-0.65-0.02c-0.85-0.04-1.73-0.06-2.63-0.07
			c-7.12-0.11-14.33-0.13-21.5-0.03c-7.18,0.15-14.37-0.1-21.56-0.24l-21.57-0.41l2-1.6l-4.32,15.97l-0.01-0.77l5.38,23.18
			l-0.03-0.1L1016.24,728.68z"/>
	</g>
	<g>
		<path class="st0" d="M1183.21,766.98l-6.13-19.15v-20.68l12.26-13.02h37.53h26.04l6.89,11.49c0,0,0.77,16.85,0,19.15
			c-0.77,2.3-9.96,29.11-9.96,29.11l-6.89,31.4l-6.13,32.17l0.77,28.34l-0.77,71.23l6.89,24.51l7.66,29.11l-3.83,16.85h-15.32
			l-18.38-3.83c0,0-26.04-4.6-30.64-4.6c-4.6,0-15.32,0.77-22.98,0c-7.66-0.77-21.45-3.76-21.45-3.76v-20.75V962.3l32.94-49.79
			l4.6-42.13l6.89-88.09V766.98z"/>
		<path class="st1" d="M1183.21,766.98l-6.82-18.93l-0.03-0.08l0-0.14l-0.68-20.68l-0.02-0.51l0.4-0.45l11.85-13.4l0.52-0.59
			l0.91-0.03l31.79-0.9c5.3-0.18,10.6-0.25,15.89-0.18c5.3,0.06,10.6,0.05,15.89,0.05l1.7,0l0.87,1.46l6.89,11.49l0.39,0.65
			l0.03,0.75c0.18,4.2,0.31,8.37,0.34,12.6c0,1.06,0,2.12-0.03,3.21c-0.01,0.54-0.03,1.09-0.07,1.66c-0.02,0.29-0.03,0.56-0.07,0.89
			l-0.05,0.48c-0.02,0.15-0.03,0.3-0.09,0.57c-0.05,0.24-0.1,0.48-0.16,0.71c-0.06,0.22-0.09,0.27-0.14,0.42l-0.25,0.74l-0.51,1.48
			l-1.01,2.96l-8.09,23.64l0.09-0.33l-6.94,31.66l-6.06,31.84l0.05-0.64l0.67,24.94l0.08,3.12c0.01,1.04-0.02,2.08-0.02,3.11
			l-0.07,6.23l-0.13,12.46l-0.54,49.83l-0.11-0.84l3.76,13.38c1.24,4.47,2.55,8.91,3.73,13.39l7.08,26.89l0.19,0.71l-0.16,0.72
			l-3.83,16.85l-0.53,2.34h-2.39h-15.32h-0.31l-0.3-0.06l-11.54-2.4l-5.77-1.2c-1.83-0.39-3.84-0.69-5.75-1.03
			c-3.87-0.66-7.75-1.31-11.62-1.92c-3.86-0.6-7.77-1.21-11.55-1.64l-1.37-0.13c-0.4-0.01-0.74-0.05-1.24-0.04l-2.88,0.07
			l-5.92,0.19c-3.98,0.1-7.99,0.15-12.09-0.12c-4.17-0.29-8.1-0.98-12.03-1.66c-3.92-0.71-7.8-1.47-11.7-2.31l-2.36-0.51v-2.43v-33
			v-0.9l0.5-0.75l32.94-49.79l-0.48,1.33l3.54-32.46l0.83-8.12c0.15-1.35,0.25-2.71,0.35-4.07l0.38-4.07l1.75-16.24l3.52-32.49
			c1.19-10.83,2.31-21.67,3.57-32.49l0,0.04L1183.21,766.98z M1183.21,766.98l0.54,15.32v0l0,0.04
			c-0.44,10.89-1.02,21.78-1.53,32.67l-1.58,32.68l-0.8,16.34c-0.17,2.72-0.31,5.44-0.64,8.15l-0.94,8.13l-3.55,32.53l-0.08,0.72
			l-0.4,0.61l-32.94,49.79l0.5-1.66v33l-2.36-2.93c3.8,0.81,7.66,1.58,11.49,2.27c3.83,0.67,7.68,1.33,11.37,1.58
			c3.76,0.25,7.64,0.2,11.53,0.11l5.89-0.19c0.99-0.03,1.99-0.06,3.03-0.07c0.48-0.02,1.13,0.02,1.71,0.05l1.58,0.15
			c4.05,0.46,7.93,1.07,11.85,1.68c3.91,0.62,7.8,1.27,11.7,1.93c1.96,0.35,3.85,0.63,5.88,1.05l5.8,1.21l11.6,2.42l-0.61-0.06
			h15.32l-2.93,2.34l3.83-16.85l0.02,1.43l-7.06-26.84c-1.18-4.47-2.48-8.91-3.72-13.37l-3.76-13.36l-0.12-0.41l0-0.43l0.54-49.75
			l0.13-12.44l0.07-6.22c0.01-1.04,0.04-2.07,0.02-3.11l-0.08-3.1l-0.67-24.84l-0.01-0.32l0.06-0.32l6.08-31.92l6.96-31.74
			l0.04-0.17l0.06-0.16l8.08-23.6l1.01-2.95l0.5-1.48l0.25-0.74c0.03-0.1,0.11-0.29,0.1-0.32c-0.01-0.02-0.01-0.04,0-0.05
			c0.01,0.02,0.02-0.09,0.03-0.2l0.03-0.3c0.03-0.18,0.03-0.44,0.05-0.67c0.03-0.46,0.04-0.96,0.06-1.45
			c0.03-0.99,0.03-2.01,0.03-3.03c-0.02-4.09-0.16-8.24-0.33-12.36l0.42,1.41l-6.89-11.49l2.57,1.46c-5.3,0-10.6-0.01-15.89,0.05
			c-5.3,0.06-10.6,0-15.89-0.18l-31.79-0.9l1.43-0.62l-12.66,12.64l0.38-0.97l-0.68,20.68l-0.03-0.22L1183.21,766.98z"/>
	</g>
	<g>
		<path class="st0" d="M1272.83,1035.06l-1.36-24.51l18.04-28.6l27.57-58.55l7.83-40.85l-4.09-13.28l-1.02-15.66
			c0,0,6.81-6.13,7.83-6.47c1.02-0.34,14.3-4.43,16-4.43c1.7,0,27.91,5.45,27.91,5.45l7.49,5.79l1.7,16.68c0,0,0.68,6.47,0,8.17
			c-0.68,1.7-15.32,32.68-15.32,32.68l-1.36,11.57l-2.38,17.36c0,0-3.4,18.38-3.4,19.4s-1.02,22.47-1.02,22.47l3.06,19.06l5.79,12.6
			l-4.43,17.7c0,0-3.4,13.96-4.09,14.98c-0.68,1.02-14.98,2.04-16.68,1.7c-1.7-0.34-65.36-9.53-65.36-9.53l-4.09-2.38
			L1272.83,1035.06z"/>
		<path class="st1" d="M1272.83,1035.06l-2.57-24.44l-0.03-0.33l0.22-0.38l8.39-14.7l8.45-14.66l-0.16,0.28
			c2.14-4.96,4.1-9.99,6.51-14.82c2.38-4.84,4.64-9.74,6.95-14.61l13.79-29.28l-0.23,0.71l7.83-40.85l0.08,1.45l-4.09-13.28
			l-0.1-0.34l-0.02-0.35l-1.02-15.66l-0.1-1.46l1.08-0.97c1.75-1.56,3.48-3.08,5.3-4.61c0.46-0.38,0.92-0.76,1.43-1.15
			c0.24-0.19,0.52-0.39,0.82-0.61l0.27-0.18l0.14-0.09c0.04-0.03,0.07-0.05,0.2-0.12c0.21-0.11,0.42-0.21,0.64-0.3
			c0.14-0.06,0.12-0.04,0.17-0.06l0.12-0.04l3.36-1.03c2.22-0.67,4.44-1.33,6.68-1.96c1.12-0.32,2.25-0.63,3.42-0.92
			c0.59-0.15,1.16-0.29,1.84-0.42l0.52-0.1c0.27-0.04,0.58-0.07,0.86-0.08c0.26,0,0.49,0.03,0.74,0.05l0.35,0.04l0.23,0.04
			c2.43,0.39,4.64,0.83,6.93,1.27l6.79,1.35l13.55,2.77l0.67,0.14l0.55,0.43l7.49,5.79l1.02,0.79l0.13,1.28l1.55,15.18
			c0.13,1.24,0.27,2.6,0.35,3.91c0.09,1.33,0.15,2.66,0.1,4.12c-0.02,0.38-0.03,0.74-0.08,1.17c-0.02,0.2-0.04,0.42-0.09,0.68
			l-0.07,0.37c-0.04,0.15-0.09,0.33-0.14,0.49c-0.13,0.41-0.18,0.47-0.25,0.63l-0.2,0.43l-0.41,0.87l-1.63,3.47l-13.02,27.79
			l0.27-0.93c-0.71,5.92-1.35,11.84-2.21,17.77l-1.22,8.89l-0.31,2.22l-0.41,2.26l-0.8,4.38l-1.56,8.76l-0.37,2.17l-0.17,1.06
			l-0.07,0.48c0.01,0.02-0.02-0.08-0.02,0.19l-0.2,4.48l-0.81,17.94l-0.03-0.62l3.06,19.06l-0.24-0.78l5.79,12.6l0.44,0.96
			l-0.26,1.02l-3.54,14.15c-1.19,4.71-2.32,9.45-3.61,14.21c-0.33,1.21-0.64,2.36-1.07,3.66l-0.19,0.54l-0.05,0.14l-0.11,0.26
			c-0.09,0.19-0.18,0.37-0.28,0.55c-0.04,0.06-0.02,0.05-0.11,0.17c-0.1,0.14-0.22,0.28-0.34,0.4c-0.23,0.25-0.61,0.51-0.65,0.53
			c-0.21,0.13-0.55,0.3-0.65,0.33c-0.14,0.06-0.31,0.12-0.43,0.16l-0.34,0.1c-0.84,0.23-1.46,0.33-2.13,0.45
			c-2.58,0.4-5.02,0.62-7.51,0.81c-1.24,0.1-2.48,0.18-3.74,0.25c-0.63,0.03-1.27,0.06-1.93,0.08c-0.33,0.01-0.68,0-1.08-0.01
			c-0.23-0.02-0.41-0.02-0.83-0.08l-0.52-0.08c-2.4-0.35-4.78-0.8-7.16-1.25l-28.61-5.36c-9.54-1.83-19.09-3.64-28.64-5.54
			l-0.08-0.02l-0.04-0.03l-3.97-2.59l-0.11-0.07l0.09-0.08L1272.83,1035.06z M1272.83,1035.06l-1.29,1.43l-0.02-0.15l4.2,2.18
			l-0.12-0.04c9.7,0.91,19.39,1.9,29.1,2.88l29.13,3.06c2.43,0.25,4.86,0.5,7.27,0.85l0.23,0.03l0.11,0.02
			c0.04,0.01,0.09,0.01,0.05,0c-0.12-0.02,0,0,0.08,0l0.74,0.02c0.55,0.01,1.13,0,1.71-0.01c1.17-0.03,2.36-0.1,3.54-0.18
			c2.36-0.18,4.77-0.4,6.99-0.75c0.53-0.09,1.11-0.2,1.44-0.29l0.1-0.03c0.02-0.01,0,0,0,0c0.05-0.02-0.16,0.07-0.24,0.13
			c0.03-0.02-0.3,0.19-0.47,0.39c-0.1,0.1-0.18,0.21-0.26,0.33c-0.06,0.1-0.03,0.04-0.06,0.07c-0.04,0.04-0.07,0.09-0.09,0.14
			c-0.01,0.01-0.03,0.08-0.02,0.05l0.03-0.08l0.11-0.32c0.33-1,0.66-2.2,0.97-3.34c1.26-4.63,2.39-9.35,3.58-14.07l3.54-14.16
			l0.18,1.98l-5.79-12.6l-0.17-0.37l-0.07-0.4l-3.06-19.06l-0.05-0.3l0.01-0.31l0.81-17.71l0.2-4.43c0-0.1,0.03-0.57,0.07-0.93
			l0.09-0.62l0.18-1.15l0.38-2.22l1.57-8.81l0.8-4.39l0.38-2.13l0.3-2.2l1.21-8.79c0.85-5.84,1.49-11.75,2.2-17.64l0.06-0.48
			l0.21-0.45l12.9-27.51l1.61-3.44l0.4-0.86l0.2-0.43c0.06-0.13,0.16-0.35,0.11-0.25c-0.01,0.01-0.01,0.04-0.01,0.04l0.01-0.1
			c0.01-0.05,0.03-0.15,0.04-0.27c0.03-0.2,0.04-0.48,0.05-0.73c0.03-1.09-0.01-2.3-0.09-3.51c-0.08-1.22-0.2-2.4-0.33-3.69
			l-1.55-15.19l1.15,2.07l-7.49-5.79l1.22,0.56l-13.51-2.76l-6.75-1.34c-2.23-0.43-4.54-0.88-6.65-1.22l-0.2-0.03l-0.08-0.01
			c-0.04,0-0.1-0.02-0.12-0.02c0,0.01,0.02,0.01,0.01,0.01l-0.33,0.06c-0.45,0.09-0.99,0.22-1.52,0.35
			c-1.07,0.27-2.16,0.57-3.25,0.87c-2.19,0.62-4.38,1.26-6.57,1.92l-3.24,1c0.42-0.23-0.18,0.13-0.54,0.44
			c-0.41,0.31-0.84,0.66-1.26,1.02c-1.71,1.42-3.44,2.94-5.12,4.45l0.99-2.42l1.02,15.66l-0.13-0.69l4.08,13.28l0.22,0.71
			l-0.14,0.73l-7.83,40.85l-0.07,0.37l-0.16,0.34l-13.79,29.28c-2.29,4.88-4.63,9.74-6.84,14.66c-2.18,4.93-4.82,9.65-7.28,14.46
			l-0.12,0.23l-0.04,0.06l-9.59,13.94l-9.65,13.9l0.18-0.71C1272.8,1018.85,1272.76,1027.05,1272.83,1035.06z"/>
	</g>
	<g>
		<path class="st0" d="M822.96,569.36l-17.51-31.15l3.21-11.74l12.26-3.57h26.04h27.06l5.11,6.13v11.23l-8.17,14.3l-7.66,17.87
			l-3.06,14.81l3.06,17.87l3.57,12.26l3.57,12.26l14.3,20.43v11.23l-7.15,7.32c0,0-16.34,5.45-17.87,5.45s-22.47,0-22.47,0
			l-23.49-5.45l-8.32-4.77V648l12.91-34.21l6.13-22.47L822.96,569.36z"/>
		<path class="st1" d="M822.96,569.36l-9.76-15.15c-3.2-5.03-6.42-10-9.54-14.99l-0.39-0.63l0.2-0.92l2.64-11.9l0.29-1.32l1.52-0.53
			l6.04-2.09c2.01-0.71,4.05-1.32,6.1-1.88l0.48-0.13l0.38,0.01c4.43,0.09,8.85,0.05,13.28,0.06h13.28h26.55h1.41l0.9,1.08
			l5.11,6.13l0.7,0.83v1.09v11.23v0.8l-0.4,0.69l-8.17,14.3l0.15-0.31l-7.66,17.87l0.18-0.57l-3.06,14.81l0.02-1.11l3.06,17.87
			l-0.08-0.33l7.15,24.51l-0.42-0.88l14.3,20.43l0.54,0.77v0.95v11.23v1.22l-0.85,0.87l-7.15,7.32l-0.51,0.52l-0.69,0.23
			c-3.28,1.09-6.54,2.15-9.84,3.19c-1.65,0.52-3.3,1.03-4.99,1.52c-0.87,0.24-1.66,0.48-2.7,0.71c-0.15,0.05-0.73,0.14-1.2,0.17
			c-0.32,0.01-0.46,0-0.7,0.01h-1.29h-20.58h-0.34l-0.33-0.08l-23.49-5.45l-0.43-0.1l-0.38-0.22l-8.32-4.77l-1.51-0.86v-1.74V648
			v-0.55l0.19-0.51l6.45-17.11c1.04-2.87,2.03-5.75,3.3-8.53l3.65-8.39l-0.07,0.22l3.61-11.08l3.67-11.07l-0.04,0.43
			C823.08,584.16,823.05,576.81,822.96,569.36z M822.96,569.36c0.93,7.19,1.92,14.48,2.82,21.87l0.02,0.15l-0.06,0.28l-2.46,11.4
			l-2.51,11.38l-0.07,0.22l-2.81,8.71c-0.89,2.92-2.04,5.74-3.16,8.58l-6.47,17.1l0.19-1.06v15.83l-1.51-2.6l8.32,4.77l-0.81-0.32
			l23.49,5.45l-0.68-0.08h20.58h1.29c0.19,0,0.48,0.01,0.59-0.01c-0.05-0.03-0.2,0.02,0.07-0.04c0.64-0.14,1.5-0.39,2.28-0.61
			c1.6-0.47,3.23-0.97,4.85-1.48c3.25-1.02,6.51-2.09,9.74-3.16l-1.2,0.75l7.15-7.32l-0.85,2.1v-11.23l0.54,1.72l-14.3-20.43
			l-0.28-0.41l-0.14-0.48l-7.15-24.51l-0.05-0.16l-0.03-0.17l-3.06-17.87l-0.1-0.56l0.11-0.56l3.06-14.81l0.06-0.3l0.12-0.28
			l7.66-17.87l0.07-0.16l0.09-0.15l8.17-14.3l-0.4,1.49v-11.23l0.7,1.92l-5.11-6.13l2.3,1.08h-26.55h-13.28
			c-4.43,0.01-8.85-0.03-13.28,0.06l0.86-0.12c-2.03,0.63-4.08,1.21-6.15,1.69l-6.22,1.49l1.81-1.85l-3.79,11.59l-0.19-1.55
			c2.72,5.39,5.33,10.8,7.97,16.15C817.85,558.71,820.39,564.07,822.96,569.36z"/>
	</g>
	<g>
		<path class="st0" d="M1006.79,652.6l-8.17-5.62l4.09-27.57l18.38-33.19V513.7c0,0-5.11-15.83-5.62-17.87
			c-0.51-2.04-5.62-16.34-5.62-16.34v-14.3l15.32-6.64h24l23.49,5.11l10.72,14.3c0,0,3.06,11.74,3.06,13.79
			c0,2.04-2.55,19.91-2.55,19.91l-8.68,9.19v54.64l11.23,32.17l8.17,14.3l3.57,15.32c0,0-5.11,14.3-7.66,15.32
			C1087.98,653.62,1006.79,652.6,1006.79,652.6z"/>
		<path class="st1" d="M1006.79,652.6l-8.46-5.2l-0.25-0.15l0.03-0.34c0.87-9.26,1.87-18.51,2.8-27.76l0.03-0.25l0.18-0.36
			l8.53-16.96l4.27-8.48c0.7-1.42,1.45-2.81,2.18-4.21c0.76-1.38,1.53-2.77,2.32-4.13l-0.38,1.48c0.09-6.04,0.03-12.09,0.05-18.13
			v-18.13V513.7l0.14,0.92l-5.45-17.36l-0.61-1.96l-0.7-2.1l-1.46-4.23l-2.99-8.47l-0.17-0.5v-0.51v-14.3v-1.97l1.81-0.78
			l15.32-6.64l0.57-0.25h0.62h24h0.32l0.32,0.07l23.49,5.11l1.09,0.24l0.67,0.89l10.72,14.3l0.36,0.48l0.15,0.57
			c0.72,2.8,1.41,5.57,2.06,8.39c0.32,1.42,0.64,2.82,0.9,4.37l0.09,0.63l0.04,0.32l0.03,0.45c0.03,0.32,0.02,0.57,0,0.82
			l-0.02,0.37l-0.03,0.29c-0.07,0.79-0.15,1.49-0.23,2.22c-0.69,5.74-1.49,11.36-2.28,17.03l-0.13,0.94l-0.66,0.7l-8.68,9.19
			l0.82-2.06v54.64l-0.17-0.99l11.23,32.17l-0.23-0.5l8.17,14.3l0.22,0.38l0.1,0.43l3.57,15.32l0.2,0.88l-0.3,0.81
			c-1.51,4.08-3.03,8-5.09,12.01c-0.54,1.01-1.08,2.01-1.93,3.13c-0.23,0.29-0.47,0.59-0.83,0.93c-0.13,0.15-0.43,0.38-0.65,0.54
			c-0.28,0.19-0.77,0.47-1.07,0.54c-0.33,0.1-0.68,0.17-1.02,0.22l-0.47,0.04c-0.31,0.03-0.63,0.06-0.9,0.07
			c-2.22,0.11-4.32,0.16-6.45,0.23c-4.24,0.18-8.46-0.01-12.68-0.17l-12.64-0.52c-8.43-0.35-16.85-0.78-25.26-1.23
			C1023.62,653.64,1015.2,653.1,1006.79,652.6z M1006.79,652.6l50.53-1.84l12.62-0.48c4.2-0.18,8.41-0.4,12.59-0.34
			c2.08,0,4.2-0.03,6.18-0.14c0.26-0.01,0.46-0.03,0.68-0.05l0.32-0.03c-0.08,0-0.17,0.03-0.24,0.07c-0.04,0.03-0.32,0.14-0.37,0.2
			c-0.02,0-0.09,0.09-0.05,0.03c0.03-0.02,0.12-0.14,0.22-0.26c0.42-0.55,0.92-1.4,1.36-2.25c1.79-3.48,3.34-7.42,4.75-11.24
			l-0.1,1.69l-3.57-15.32l0.32,0.81l-8.17-14.3l-0.14-0.24l-0.09-0.26l-11.23-32.17l-0.17-0.48v-0.51v-54.64v-1.19l0.82-0.87
			l8.68-9.19l-0.79,1.64c0.79-5.62,1.59-11.29,2.26-16.88c0.08-0.69,0.16-1.4,0.22-2.03l0.02-0.24l0.01-0.16
			c0.01-0.11,0.01-0.21,0-0.25l0-0.09l-0.03-0.21l-0.06-0.43c-0.22-1.26-0.52-2.65-0.83-4.01c-0.63-2.73-1.32-5.49-2.02-8.22
			l0.5,1.04l-10.72-14.3l1.76,1.13l-23.49-5.11l0.64,0.07h-24l1.19-0.25l-15.32,6.64l1.81-2.75v14.3l-0.17-1.01l3,8.51l1.48,4.28
			l0.72,2.18l0.72,2.34l5.35,16.99l0.14,0.46v0.46v36.26v18.13c0.02,6.04-0.04,12.09,0.05,18.13l0.01,0.73l-0.39,0.74
			c-0.74,1.4-1.5,2.78-2.27,4.16c-0.8,1.36-1.59,2.74-2.42,4.08l-4.93,8.11l-9.86,16.23l0.21-0.61c-1.79,9.13-3.51,18.27-5.37,27.38
			l-0.21-0.49L1006.79,652.6z"/>
	</g>
	<g>
		<path class="st0" d="M1203.38,592.85l-0.9-8.48l-3.02-28.57l-3.74-17.59l3.74-11.23l8.51-4.09c0,0,27.06,0,29.11,0
			c2.04,0,14.3,0,14.3,0l8.77,8.17v15.83c0,0-2.13,15.32-2.64,16.85c-0.51,1.53-4.6,8.68-4.6,8.68l-0.51,31.15
			c0,0-0.51,57.7-0.51,60.26c0,2.55,5.11,14.3,5.11,14.3l3.15,18.89l-7.74,10.21c0,0-10.72-1.02-14.3,0c-3.57,1.02-28.6,0-31.15,0
			s-18.89-3.57-18.89-3.57l-8.68-5.62c0,0-1.02-12.26,0-13.79s17.87-44.94,17.87-44.94l5.11-19.4L1203.38,592.85z"/>
		<path class="st1" d="M1203.38,592.85c-0.33-3.09-0.69-6.17-1.08-9.25c-0.41-3.08-0.81-6.16-1.31-9.23
			c-0.47-3.07-0.96-6.14-1.49-9.21l-1.6-9.2l0.03,0.16l-2.47-8.67c-0.79-2.9-1.63-5.78-2.38-8.69l-0.15-0.59l0.23-0.83l1.6-5.71
			c0.53-1.9,1.16-3.77,1.8-5.64l0.44-1.28l1.15-0.52c2.87-1.3,5.71-2.66,8.54-4.02l0.61-0.3h0.68h43.4h1.18l0.86,0.81l8.77,8.17
			l0.95,0.89v1.3v15.83v0.21l-0.03,0.2c-0.63,4.46-1.26,8.89-1.98,13.37l-0.29,1.7l-0.16,0.87l-0.09,0.46l-0.05,0.23l-0.08,0.34
			c-0.06,0.23-0.12,0.46-0.21,0.67l-0.13,0.32l-0.1,0.23c-0.14,0.33-0.28,0.59-0.41,0.87l-0.8,1.57c-1.08,2.04-2.17,3.99-3.3,5.97
			l0.39-1.44l-0.44,26.64c-0.15,8.88-0.17,17.76-0.26,26.64l-0.23,26.64l-0.06,6.66l-0.03,3.33l-0.01,0.83l0,0.42v0.19
			c0.01,0.01,0.01,0.02,0.01,0.03c0.01,0.03-0.01,0.01,0.01,0.1l0.06,0.28c0.03,0.17,0.1,0.42,0.16,0.65
			c0.53,1.88,1.33,3.97,2.11,5.98c0.8,2.02,1.64,4.07,2.5,6.06l0.15,0.34l0.06,0.36l3.15,18.89l0.21,1.28l-0.78,1.03l-7.74,10.21
			l-1,1.32l-1.67-0.15c-2.58-0.23-5.26-0.39-7.84-0.43c-1.29-0.02-2.57,0-3.75,0.1c-0.3,0.02-0.58,0.05-0.83,0.09
			c-0.29,0.03-0.48,0.08-0.67,0.12l-0.58,0.12l-0.74,0.14c-0.44,0.06-0.78,0.08-1.17,0.12c-2.94,0.23-5.61,0.2-8.36,0.21
			c-2.73-0.01-5.44-0.05-8.15-0.11l-8.12-0.21l-4.03-0.11l-0.95-0.02c-0.5-0.02-1.02-0.06-1.35-0.11c-0.78-0.09-1.44-0.21-2.14-0.32
			c-5.45-0.95-10.7-2.08-16.02-3.22l-0.53-0.11l-0.46-0.3l-8.68-5.62l-1.24-0.8l-0.12-1.46c-0.21-2.66-0.37-5.26-0.44-7.94
			c-0.03-1.34-0.05-2.68,0.04-4.15c0.01-0.35,0.07-0.78,0.11-1.17c0.01-0.17,0.08-0.48,0.13-0.72l0.08-0.38
			c0-0.04,0.05-0.18,0.09-0.3l0.14-0.36c0.1-0.23,0.22-0.47,0.34-0.68l0.03-0.1c0.02-0.06,0.05-0.12,0.08-0.18l0.35-0.8
			c1.97-4.66,3.88-9.54,5.79-14.33l2.84-7.23c0.93-2.42,1.79-4.86,2.84-7.24c2.1-4.74,4.22-9.48,6.41-14.19l-0.08,0.24l6.39-19.07
			l-0.03,0.19c0.24-2.24,0.43-4.49,0.62-6.74c0.2-2.25,0.39-4.5,0.54-6.76C1202.97,601.87,1203.21,597.36,1203.38,592.85z
			 M1203.38,592.85c-0.16,4.51-0.27,9.02-0.3,13.53c-0.02,2.26,0,4.51,0.03,6.78c0.02,2.26,0.05,4.52,0.11,6.79l0,0.04l-0.03,0.15
			l-3.82,19.74l-0.08,0.24c-1.57,4.96-3.21,9.88-4.89,14.79c-0.84,2.46-1.87,4.84-2.84,7.24l-2.87,7.24
			c-1.93,4.84-3.8,9.62-5.86,14.51l-0.2,0.46l-0.1,0.23c-0.03,0.07-0.07,0.16-0.13,0.29l-0.35,0.69l-0.18,0.34
			c0.06-0.06,0.12-0.15,0.16-0.23c0.02-0.04,0.04-0.09,0.05-0.13c0.01-0.04,0.02-0.11,0.02-0.07l-0.01,0.1
			c-0.01,0.08-0.03,0.09-0.04,0.24c-0.02,0.25-0.06,0.46-0.07,0.76c-0.07,1.12-0.06,2.37-0.03,3.62c0.07,2.5,0.22,5.08,0.42,7.59
			l-1.36-2.27l8.68,5.62l-0.99-0.41c5.23,1.12,10.54,2.26,15.72,3.16c0.63,0.1,1.3,0.21,1.86,0.28c0.34,0.05,0.49,0.05,0.66,0.07
			l1.08,0.02l4.06,0.11l8.07,0.21c2.69,0.06,5.37,0.1,8.04,0.11c2.65,0,5.39,0,7.82-0.19c0.28-0.03,0.62-0.05,0.84-0.08
			c0.08-0.02,0.17-0.03,0.25-0.05c0.09-0.02,0.12,0,0.41-0.08c0.47-0.11,0.93-0.21,1.32-0.25c0.42-0.07,0.81-0.1,1.18-0.13
			c1.52-0.12,2.93-0.13,4.34-0.12c2.82,0.05,5.53,0.21,8.32,0.46l-2.67,1.17l7.74-10.21l-0.57,2.31l-3.15-18.89l0.21,0.7
			c-0.9-2.09-1.75-4.15-2.58-6.26c-0.82-2.13-1.63-4.19-2.31-6.59c-0.08-0.31-0.17-0.6-0.24-0.97l-0.11-0.53
			c-0.04-0.19-0.06-0.49-0.08-0.73l-0.03-0.38v-0.22l0-0.42l0.01-0.83l0.03-3.33l0.06-6.67l0.23-26.67
			c0.09-8.89,0.12-17.78,0.26-26.67l0.44-26.66l0.01-0.77l0.38-0.67c1.09-1.92,2.18-3.87,3.2-5.8l0.73-1.42l0.31-0.65l0.07-0.15
			l0.03-0.07c0.03-0.05,0.03-0.09,0.04-0.14l0.02-0.07l0.04-0.18l0.07-0.36l0.14-0.78l0.27-1.62c0.7-4.37,1.34-8.81,1.96-13.23
			l-0.03,0.41v-15.83l0.95,2.19l-8.77-8.17l2.05,0.81h-43.4l1.3-0.3c-2.84,1.36-5.67,2.73-8.48,4.15l1.58-1.8
			c-0.61,1.88-1.23,3.75-1.95,5.59l-2.14,5.53l0.08-1.42c0.5,2.96,0.91,5.93,1.37,8.9l1.27,8.92l0.03,0.16l0.35,9.33
			c0.12,3.11,0.28,6.21,0.46,9.32c0.16,3.11,0.41,6.2,0.65,9.3C1202.77,586.67,1203.07,589.76,1203.38,592.85z"/>
	</g>
	<g>
		<path class="st0" d="M1340.24,837.96l-8.68-7.66l-3.06-13.79l11.74-18.38l15.83-34.21v-30.64v-19.15l9.19-10.98h20.94l13.79,4.54
			c0,0,6.13,7.21,6.13,8.74s1.53,16.34,0,18.89c-1.53,2.55-17.87,22.98-17.87,22.98s2.04,22.47,1.02,27.06s-0.51,37.28-0.51,37.28
			l-2.55,15.32l-13.28,4.77L1340.24,837.96z"/>
		<path class="st1" d="M1340.24,837.96l-9.26-7l-0.18-0.13l-0.1-0.33l-3.98-13.58l-0.18-0.62l0.42-0.76l5.33-9.54l2.66-4.77
			c0.9-1.59,1.76-3.19,2.7-4.75l-0.2,0.36c0.63-1.44,1.33-2.85,2.02-4.26c0.68-1.41,1.34-2.84,2-4.27l3.96-8.55l7.91-17.11
			l-0.28,1.26v-49.79v-1.09l0.7-0.84l9.19-10.98l0.9-1.07h1.4h20.94h0.48l0.46,0.15l13.79,4.54l0.81,0.27l0.53,0.64
			c1.64,1.95,3.18,3.86,4.71,6.01c0.38,0.54,0.76,1.11,1.14,1.74l0.29,0.54l0.15,0.28l0.17,0.38l0.15,0.39
			c0.06,0.15,0.14,0.51,0.18,0.76c0.09,0.76,0.05,0.63,0.07,0.76l0.25,3.57c0.18,2.47,0.33,4.95,0.39,7.48
			c0.04,1.26,0.03,2.55-0.01,3.87c-0.04,0.69-0.05,1.32-0.16,2.08c-0.05,0.37-0.07,0.71-0.18,1.16l-0.14,0.64
			c-0.01,0.09-0.06,0.24-0.13,0.4l-0.19,0.46c-0.3,0.72-0.49,0.89-0.71,1.24c-0.23,0.34-0.39,0.55-0.59,0.83l-1.13,1.52l-2.26,2.95
			l-4.54,5.82l-9.16,11.54l0.65-2.15c0.47,5.4,0.87,10.76,1.14,16.2c0.12,2.72,0.22,5.43,0.16,8.28c0,0.35-0.02,0.72-0.05,1.1
			c-0.03,0.39-0.04,0.73-0.09,1.15l-0.3,2.01c-0.12,1.16-0.19,2.48-0.25,3.79c-0.19,5.27-0.21,10.63-0.21,15.98
			c0.01,5.35,0.05,10.71,0.13,16.06l0,0.27l-0.04,0.27l-1.28,7.66c-0.22,1.28-0.41,2.55-0.6,3.84c-0.18,1.28-0.38,2.56-0.64,3.83
			l-0.39,1.88l-1.58,0.48c-2.25,0.68-4.52,1.33-6.78,2l-6.78,1.99l-0.65,0.19l-0.42-0.08c-5.51-1.12-10.96-2.29-16.36-3.45
			C1350.84,840.33,1345.52,839.11,1340.24,837.96z M1340.24,837.96l16.68,1.26c5.5,0.43,10.94,0.85,16.33,1.32l-1.07,0.11l6.5-2.78
			c2.17-0.92,4.33-1.86,6.5-2.77l-1.97,2.36c0.16-1.28,0.39-2.56,0.64-3.83c0.24-1.27,0.47-2.55,0.68-3.82l1.28-7.66l-0.04,0.54
			c-0.08-5.39-0.12-10.76-0.13-16.15c0-5.39,0.02-10.77,0.22-16.23c0.06-1.38,0.13-2.74,0.29-4.25l0.29-1.97
			c0.03-0.24,0.04-0.57,0.06-0.85c0.02-0.29,0.04-0.59,0.04-0.91c0.06-2.52-0.03-5.18-0.15-7.82c-0.25-5.29-0.66-10.64-1.12-15.93
			l-0.1-1.2l0.75-0.95l9.13-11.51l4.51-5.78l2.21-2.89l1.06-1.43c0.16-0.22,0.37-0.5,0.48-0.67c0.11-0.16,0.32-0.47,0.21-0.34
			c-0.01,0.01-0.01,0.02-0.01,0.03c0,0.02,0.01,0.03,0.01-0.04l0.05-0.26c0.05-0.14,0.07-0.41,0.1-0.65
			c0.07-0.46,0.08-1.05,0.12-1.59c0.03-1.13,0.04-2.3,0-3.49c-0.06-2.37-0.21-4.78-0.38-7.21l-0.13-1.83l-0.13-1.94
			c0-0.18-0.03-0.61-0.01-0.15c0,0.1,0.07,0.31,0.08,0.31c-0.01-0.01-0.02-0.02-0.02-0.04s-0.01-0.03-0.01-0.04l-0.07-0.13
			l-0.15-0.27c-0.25-0.42-0.55-0.87-0.87-1.33c-1.31-1.85-2.85-3.76-4.36-5.57l1.35,0.91l-13.79-4.54l0.94,0.15h-20.94l2.3-1.07
			l-9.19,10.98l0.7-1.93v49.79v0.66l-0.28,0.6l-7.91,17.11l-3.96,8.55c-0.66,1.42-1.32,2.85-1.96,4.29
			c-0.63,1.44-1.25,2.88-1.94,4.3l-0.12,0.24l-0.08,0.12c-1.01,1.51-2.11,2.96-3.17,4.44l-3.21,4.42l-6.42,8.84l0.24-1.37
			l2.14,13.99l-0.28-0.47L1340.24,837.96z"/>
	</g>
	<g>
		<path class="st0" d="M1367.64,698.55l-10.55-4.09l-2.55-11.23l13.11-14.64l10.38-12.94l3.03-19.4c0,0-5.07-4.6-5.58-6.13
			c-0.51-1.53-3.57-12.82-3.57-14.84s0.51-7.12,1.53-8.65c1.02-1.53,5.03-2.55,7.62-5.11c2.59-2.55,1.57-4.09,5.14-4.09
			s6.13-1.02,10.21,0c4.09,1.02,4.09,0.51,7.66,2.55s7.68,4.09,7.68,6.64c0,2.55,1.51,2.5,2.03,8.65s2.03,9.73,0,14.33
			s-6.3,6.64-6.98,10.72c-0.68,4.09,2.38-0.96-3.23,7.43c-5.62,8.4-1.53,20.82-1.53,20.82s-0.19,10.04,4.77,13.11
			c4.95,3.06,4.95,12.77,4.95,12.77l-4.95,6.64L1367.64,698.55z"/>
		<path class="st1" d="M1367.64,698.55l-5.43-1.53l-5.5-1.59l-0.45-0.13l-0.19-0.61c-1.15-3.68-2.34-7.34-3.47-11.03l-0.26-0.83
			l0.71-0.92l5.53-7.17c1.87-2.36,3.58-4.85,5.71-6.99c1.07-1.07,1.98-2.26,2.92-3.43l2.82-3.52l5.64-7.03l-0.62,1.42l3.03-19.4
			l0.95,2.68c-1.17-1.08-2.27-2.13-3.38-3.28c-0.55-0.58-1.1-1.17-1.67-1.87c-0.28-0.35-0.58-0.72-0.91-1.29
			c-0.07-0.1-0.19-0.36-0.29-0.57l-0.14-0.33c-0.04-0.11-0.04-0.12-0.06-0.19l-0.19-0.61c-0.86-2.99-1.62-5.87-2.34-8.85
			c-0.36-1.5-0.71-2.95-0.99-4.62l-0.1-0.68c-0.03-0.27-0.06-0.65-0.06-0.92c0-0.46,0.02-0.88,0.04-1.29
			c0.05-0.82,0.12-1.62,0.21-2.42c0.09-0.8,0.21-1.61,0.37-2.43c0.16-0.83,0.34-1.66,0.69-2.65c0.08-0.23,0.22-0.54,0.34-0.81
			c0.19-0.34,0.35-0.66,0.65-1.02c0.3-0.38,0.53-0.57,0.8-0.82c0.23-0.18,0.48-0.39,0.69-0.52c0.86-0.58,1.58-0.94,2.25-1.3
			c1.34-0.7,2.49-1.33,3.38-2.04c0.44-0.34,0.81-0.71,1.15-1.12c0.34-0.41,0.55-0.77,1.04-1.58c0.27-0.41,0.7-1.06,1.45-1.63
			c0.37-0.29,0.76-0.49,1.16-0.67c0.35-0.13,0.75-0.26,1.05-0.31l0.47-0.09l0.41-0.04c0.29-0.03,0.53-0.04,0.77-0.05l1.09-0.03
			c1.28-0.04,2.72-0.27,4.42-0.39c1.69-0.12,3.58-0.02,5.31,0.38c1.64,0.41,2.64,0.57,4.51,1c0.95,0.24,1.91,0.64,2.67,1.03
			c0.77,0.38,1.49,0.8,2.12,1.15c1.28,0.73,2.64,1.46,4.05,2.38c0.7,0.46,1.42,0.96,2.16,1.62c0.72,0.67,1.53,1.46,2.13,2.81
			c0.15,0.32,0.26,0.73,0.36,1.11c0.04,0.2,0.06,0.41,0.08,0.62l0.04,0.52c0.01,0.19,0.02,0.32,0.05,0.44
			c0.03,0.12,0.09,0.3,0.22,0.6c0.14,0.32,0.31,0.7,0.47,1.13c0.68,1.74,0.98,3.5,1.17,5.12l0.22,2.26
			c0.08,0.71,0.17,1.42,0.27,2.14c0.2,1.46,0.45,2.96,0.58,4.65c0.14,1.68,0.09,3.59-0.39,5.43c-0.45,1.84-1.3,3.53-2.3,5.02
			c-1,1.48-2.13,2.69-3.08,3.77c-0.48,0.54-0.89,1.04-1.24,1.52c-0.34,0.47-0.58,0.91-0.75,1.31c-0.07,0.2-0.15,0.4-0.18,0.6
			c-0.05,0.16-0.08,0.51-0.1,0.64c0,0.03,0,0.05-0.01,0.08c-0.01,0.05,0.01-0.06-0.01-0.09c-0.01-0.04-0.01-0.01-0.02-0.1
			c-0.02-0.09-0.04-0.18-0.08-0.26l-0.06-0.13c-0.03-0.07-0.07-0.14-0.1-0.21c-0.08-0.14-0.2-0.28-0.21-0.3
			c-0.01-0.01-0.07-0.08-0.04-0.04c0.15,0.16,0.28,0.34,0.4,0.53c0.05,0.09,0.11,0.17,0.21,0.41c0.08,0.2,0.15,0.42,0.19,0.64
			c0.04,0.22,0.06,0.45,0.06,0.66c-0.01,0.27-0.02,0.22-0.03,0.35c-0.03,0.18-0.06,0.35-0.12,0.52l-0.08,0.25
			c-0.04,0.1-0.05,0.14-0.06,0.15l-0.15,0.31c-0.13,0.25-0.17,0.3-0.24,0.42l-0.19,0.31l-2.54,3.79c-0.2,0.3-0.44,0.64-0.6,0.91
			l-0.45,0.78c-0.34,0.5-0.52,1.11-0.79,1.65c-0.9,2.31-1.2,4.98-1.16,7.68c0.06,1.36,0.17,2.72,0.39,4.08
			c0.12,0.68,0.24,1.36,0.39,2.03c0.15,0.64,0.33,1.38,0.5,1.9l0.15,0.47l0,0.52c0,0.93,0.08,2.1,0.21,3.14
			c0.13,1.06,0.33,2.1,0.61,3.07c0.51,1.96,1.48,3.61,2.47,4.24l0.95,0.7c0.37,0.25,0.65,0.56,0.94,0.85
			c0.62,0.59,1.05,1.24,1.49,1.89c0.84,1.31,1.36,2.64,1.79,3.96c0.43,1.32,0.7,2.63,0.9,3.94c0.2,1.34,0.32,2.55,0.35,4.02
			l0.02,0.97l-0.61,0.82l-2.48,3.32c-0.82,1.11-1.59,2.26-2.42,3.36l-1.01,1.34l-1.65-0.11c-1.65-0.11-3.29-0.4-4.93-0.61
			l-4.91-0.68l-9.78-1.37l-9.71-1.43L1367.64,698.55z M1367.64,698.55l9.95-0.24l9.87-0.16l9.8-0.1l4.88-0.04
			c1.62,0,3.25-0.07,4.86,0.03l-2.66,1.23c0.82-1.11,1.7-2.17,2.53-3.28l2.48-3.32l-0.6,1.79c-0.01-0.92-0.12-2.09-0.28-3.11
			c-0.16-1.05-0.38-2.08-0.69-3.03c-0.31-0.94-0.68-1.85-1.14-2.55c-0.24-0.33-0.46-0.69-0.72-0.91c-0.13-0.13-0.24-0.28-0.38-0.35
			l-0.49-0.37c-1.54-0.98-2.56-2.34-3.34-3.65c-0.78-1.33-1.26-2.67-1.64-4c-0.38-1.33-0.63-2.64-0.79-3.95
			c-0.16-1.33-0.26-2.55-0.26-4.01l0.15,0.99c-0.29-0.92-0.46-1.64-0.65-2.46c-0.18-0.79-0.32-1.59-0.46-2.39
			c-0.25-1.6-0.4-3.23-0.46-4.87c-0.05-3.29,0.29-6.71,1.56-10c0.37-0.81,0.65-1.64,1.14-2.41l0.68-1.16
			c0.22-0.36,0.42-0.64,0.64-0.96l2.48-3.69l0.11-0.17c0.03-0.04,0.09-0.14,0.04-0.06c-0.01,0.02-0.02,0.04-0.02,0.06
			c0-0.01,0,0.01-0.04,0.09c-0.02,0.06-0.05,0.12-0.06,0.19c-0.04,0.13-0.06,0.26-0.08,0.39l-0.02,0.28
			c-0.01,0.19,0.01,0.39,0.04,0.59c0.04,0.2,0.1,0.39,0.18,0.57c0.1,0.21,0.14,0.28,0.18,0.35c0.09,0.15,0.19,0.3,0.31,0.42
			l-0.13-0.15c-0.18-0.17-0.59-0.86-0.65-1.12c-0.06-0.17-0.11-0.35-0.16-0.53c-0.04-0.18-0.04-0.25-0.06-0.38
			c-0.02-0.21-0.06-0.51-0.05-0.65l0.01-0.48c0.05-0.61,0.09-1.02,0.22-1.59c0.1-0.54,0.28-1.05,0.47-1.55
			c0.4-0.98,0.92-1.85,1.45-2.6c0.54-0.73,1.08-1.39,1.6-1.97c1.03-1.17,1.95-2.17,2.63-3.19c0.67-1,1.18-2.04,1.44-3.12
			c0.28-1.07,0.33-2.2,0.22-3.51c-0.1-1.3-0.34-2.76-0.54-4.28c-0.11-0.76-0.2-1.54-0.29-2.32l-0.22-2.23
			c-0.16-1.36-0.39-2.58-0.8-3.63c-0.1-0.27-0.24-0.57-0.4-0.95c-0.17-0.4-0.38-0.92-0.53-1.52c-0.15-0.61-0.21-1.24-0.22-1.79
			l0-0.09l-0.01,0.02c0,0.01,0,0.02,0,0.03c0,0.02,0.01,0.05,0.02,0.06c-0.02,0.02,0.02,0.06,0,0.04c0-0.03-0.24-0.37-0.62-0.71
			c-0.38-0.34-0.89-0.71-1.44-1.07c-1.11-0.73-2.39-1.43-3.72-2.18c-1.32-0.76-2.43-1.38-3.35-1.6c-1.05-0.25-3.01-0.62-4.28-0.95
			c-1.19-0.27-2.33-0.33-3.64-0.25c-1.3,0.08-2.83,0.33-4.55,0.39l-1.16,0.03c-0.13,0-0.27,0-0.35,0.02l-0.15,0.01l-0.08,0.02
			c-0.08,0.01-0.03,0.02-0.03,0c0.06-0.01,0.11-0.05,0.19-0.1c0.15-0.11,0.13-0.15-0.01,0.07c-0.28,0.46-0.84,1.41-1.46,2.15
			c-0.62,0.76-1.33,1.45-2.07,2.03c-1.47,1.16-2.99,1.95-4.3,2.64c-0.65,0.34-1.27,0.68-1.65,0.94c-0.11,0.07-0.14,0.11-0.21,0.15
			c0,0.01-0.07,0.06,0.01-0.01c0.04-0.08,0.05-0.05,0.04-0.07c-0.02,0.08-0.05,0.11-0.09,0.23c-0.15,0.42-0.31,1.06-0.43,1.7
			c-0.12,0.65-0.22,1.33-0.3,2.02c-0.08,0.69-0.14,1.39-0.18,2.06c-0.02,0.34-0.03,0.67-0.03,0.96c0.01,0.1,0.01,0.09,0.02,0.2
			l0.06,0.43c0.22,1.29,0.56,2.76,0.9,4.18c0.69,2.85,1.46,5.77,2.26,8.56l0.14,0.46c0.01,0.02,0.03,0.1,0.03,0.08
			c0-0.03-0.01-0.05-0.02-0.08c-0.01-0.04-0.07-0.12-0.03-0.07c0.05,0.08,0.21,0.31,0.4,0.54c0.38,0.46,0.84,0.98,1.33,1.48
			c0.97,1.01,2.04,2.04,3.08,2.99l1.2,1.1l-0.25,1.59l-3.03,19.4l-0.12,0.79l-0.5,0.62l-5.7,7.1c-1.92,2.35-3.76,4.76-5.72,7.08
			c-1.91,2.36-4.22,4.37-6.38,6.51l-6.56,6.33l0.45-1.75c0.58,3.81,1.09,7.63,1.64,11.44l-0.64-0.74l5.06,2.5L1367.64,698.55z"/>
	</g>
	<g>
		<path class="st0" d="M808.66,512.68l-3.21-4.6l8.57-15.32l10.72-8.43v-34.47c0,0-10.87-11.49-9.65-13.79
			c1.22-2.3,1.84-16.09,0-18.38c-1.84-2.3,9.65-17.62,9.65-17.62l13.79-9.19h21.45l10.72,16.09c0,0-2.3,13.02,0,18.38
			c2.3,5.36-3.83,26.43-3.83,26.43l-4.6,24.13l8.94,13.02l10.21,9.96v9.96l-6.13,3.83H808.66z"/>
		<path class="st1" d="M808.66,512.68l-3.56-4.35l-0.15-0.18l0.12-0.27c2.45-5.33,4.99-10.62,7.5-15.92l0.09-0.2l0.33-0.3
			c3.38-3.05,6.81-6.05,10.21-9.08l-0.95,1.96l-0.51-8.62c-0.19-2.87,0-5.74,0-8.62v-17.23l0.82,2.06
			c-1.67-1.78-3.23-3.55-4.78-5.41c-1.54-1.88-3.05-3.73-4.44-6.07c-0.35-0.61-0.69-1.22-1.01-2.11c-0.08-0.24-0.15-0.5-0.22-0.77
			c-0.03-0.17-0.06-0.34-0.08-0.52l-0.03-0.26l0-0.37c0.02-0.27,0.01-0.44,0.09-0.79c0.08-0.33,0.22-0.7,0.35-0.96
			c-0.01-0.02-0.01-0.03,0-0.04c0.06-0.18,0.19-0.71,0.27-1.19c0.08-0.5,0.16-1.03,0.22-1.57c0.23-2.17,0.35-4.44,0.33-6.65
			c-0.02-1.1-0.05-2.22-0.15-3.26c-0.04-0.54-0.12-1.02-0.19-1.5l-0.13-0.64c-0.05-0.15-0.1-0.27-0.13-0.41
			c0,0.04,0.02,0.08,0.05,0.11l0.03,0.02l0.02,0.01c0.01,0,0.02,0.02-0.05-0.08c-0.2-0.28-0.37-0.59-0.5-0.9
			c-0.08-0.17-0.11-0.29-0.13-0.4l-0.08-0.35c-0.04-0.22-0.09-0.52-0.08-0.65c0-0.31,0-0.73,0.05-0.95
			c0.15-1.07,0.42-1.73,0.67-2.41c0.53-1.31,1.11-2.42,1.72-3.52c2.45-4.31,5.15-8.15,8-12.04l0.3-0.4l0.44-0.29l13.79-9.19
			l0.76-0.5h0.91h21.45h1.61l0.89,1.34l10.72,16.08l0.65,0.98l-0.2,1.21c-0.57,3.53-0.97,7.27-0.97,10.79
			c0.01,1.75,0.12,3.51,0.47,4.92c0.06,0.39,0.21,0.61,0.29,0.93c0.08,0.23,0.27,0.72,0.35,1.04c0.07,0.33,0.17,0.68,0.21,0.99
			c0.2,1.25,0.22,2.34,0.19,3.4c-0.15,4.19-0.88,7.99-1.66,11.8c-0.81,3.8-1.73,7.5-2.8,11.26l0.07-0.28l-4.6,24.13l-0.47-2.26
			l8.94,13.02l-0.38-0.45l10.21,9.96l0.91,0.88v1.26v9.96v1.66l-1.41,0.88l-6.13,3.83l-0.72,0.45l-0.87,0
			c-5.67,0.02-11.33-0.06-17.02,0.03c-2.85,0.08-5.65-0.19-8.46-0.34l-8.38-0.52l-16.55-1.07L808.66,512.68z M808.66,512.68
			l33.85-2.18l8.28-0.52c2.75-0.15,5.5-0.43,8.2-0.34c5.42,0.1,10.86,0.01,16.3,0.04l-1.59,0.46l6.13-3.83l-1.41,2.54v-9.96
			l0.91,2.15l-10.21-9.96l-0.21-0.21l-0.17-0.24l-8.94-13.02l-0.71-1.03l0.23-1.23l4.6-24.13l0.02-0.13l0.04-0.15
			c1-3.54,1.92-7.2,2.69-10.82c0.75-3.61,1.42-7.31,1.53-10.7c0.03-0.83-0.01-1.65-0.11-2.27c-0.02-0.16-0.06-0.26-0.08-0.4
			l-0.1-0.3c-0.2-0.58-0.47-1.23-0.57-1.78c-0.55-2.28-0.63-4.34-0.65-6.38c0.01-4.07,0.42-7.89,1.06-11.85l0.46,2.19l-10.72-16.08
			l2.5,1.34h-21.45l1.66-0.5l-13.79,9.19l0.74-0.7c-2.69,3.66-5.38,7.52-7.56,11.36c-0.53,0.95-1.03,1.93-1.37,2.79
			c-0.17,0.42-0.3,0.87-0.3,0.96c-0.02,0.07,0.02-0.05,0-0.07c-0.01,0.01,0-0.14-0.02-0.22c-0.01-0.05-0.02-0.09-0.04-0.14
			c-0.02-0.04-0.03-0.08-0.07-0.19c-0.06-0.19-0.17-0.37-0.3-0.51c-0.05-0.07-0.02-0.02,0.01,0.02l0.07,0.1l0.14,0.21
			c0.18,0.28,0.34,0.58,0.49,0.88c0.15,0.42,0.3,0.85,0.42,1.26l0.23,1.08c0.1,0.68,0.21,1.36,0.26,1.99
			c0.13,1.29,0.16,2.52,0.18,3.76c0.02,2.47-0.09,4.89-0.36,7.38c-0.07,0.63-0.16,1.26-0.27,1.91c-0.12,0.67-0.23,1.3-0.54,2.23
			c-0.1,0.26-0.21,0.52-0.33,0.78c0.08-0.12,0.18-0.35,0.21-0.54c0.03-0.21,0.05-0.22,0.05-0.35c0-0.05,0-0.1-0.01-0.15l0-0.05
			c0-0.03-0.01-0.06-0.02-0.08c0.01,0.01,0.01,0.03,0.02,0.07c0.07,0.22,0.28,0.64,0.52,1.05c1,1.69,2.44,3.52,3.87,5.25
			c1.45,1.74,2.99,3.48,4.53,5.12l0.82,0.88v1.18v17.23c0,2.87,0.19,5.74,0,8.62l-0.51,8.62l-0.08,1.35l-0.87,0.6
			c-3.75,2.59-7.47,5.21-11.24,7.77l0.42-0.49c-3.2,4.91-6.38,9.84-9.65,14.72l-0.02-0.45L808.66,512.68z"/>
	</g>
	<g>
		<path class="st0" d="M1014.11,453.96l-9.87-4.09v-11.23l14.98-18.72l4.43-7.83l2.72-24.85l-2.04-3.74c0,0-3.74-5.79-4.43-6.81
			s-5.11-8.51-4.6-10.21c0.51-1.7,1.87-16.68,2.21-18.04c0.34-1.36,6.13-10.89,6.13-10.89s7.49-4.77,11.23-5.79
			c3.74-1.02,18.38-2.72,18.38-2.72l12.26,6.81l6.47,11.23v23.83c0,0-3.06,14.98-3.74,16.34c-0.68,1.36-5.79,7.83-5.79,9.19
			c0,1.36-1.7,6.47-1.36,9.53c0.34,3.06,8.17,20.43,8.17,20.43l10.55,7.49l2.04,13.28l-9.19,6.81H1014.11z"/>
		<path class="st1" d="M1014.11,453.96l-10.18-3.34l-0.46-0.15l-0.04-0.59l-0.76-11.23l-0.03-0.44l0.37-0.54
			c2.28-3.29,4.6-6.55,6.91-9.82l6.94-9.8l-0.27,0.4c0.34-0.67,0.68-1.34,1.04-2l1.12-1.95c0.77-1.29,1.53-2.58,2.27-3.88
			l-0.37,1.15l2.72-24.85l0.35,1.76l-2.04-3.74l0.11,0.19l-3.4-5.23l-0.85-1.31l-0.48-0.75l-0.43-0.72
			c-0.56-0.94-1.09-1.88-1.6-2.85c-0.51-0.97-1.01-1.95-1.48-2.99c-0.24-0.52-0.46-1.07-0.68-1.65c-0.21-0.64-0.43-1.16-0.57-2.2
			c-0.02-0.27-0.08-0.44-0.02-0.99c0.02-0.23,0.06-0.46,0.1-0.68l0.04-0.17l0-0.02l0-0.03l0.03-0.16l0.05-0.33
			c0.07-0.44,0.14-0.96,0.21-1.45l0.37-3.06l0.68-6.21l0.34-3.13l0.19-1.59l0.11-0.83l0.06-0.43l0.12-0.64
			c0.07-0.26,0.17-0.56,0.28-0.82l0.21-0.46c0.15-0.32,0.27-0.54,0.4-0.81l0.78-1.45l1.58-2.78c1.06-1.83,2.13-3.63,3.23-5.44
			l0.37-0.61l0.59-0.37c2.31-1.44,4.57-2.77,7.02-4.03c1.23-0.62,2.47-1.22,3.91-1.76c0.35-0.13,0.78-0.26,1.16-0.37
			c0.37-0.09,0.76-0.19,1.11-0.26c0.7-0.15,1.37-0.27,2.03-0.39c2.65-0.46,5.24-0.82,7.85-1.17c2.6-0.35,5.19-0.67,7.81-0.98
			l0.96-0.11l0.85,0.47l12.26,6.81l0.73,0.4l0.42,0.72l6.47,11.23l0.4,0.7v0.8v23.83v0.31l-0.06,0.29c-1.02,4.89-2,9.68-3.22,14.64
			l-0.26,0.97l-0.16,0.53l-0.04,0.14l-0.08,0.22l-0.17,0.44c-0.12,0.28-0.26,0.49-0.38,0.71l-0.3,0.48l-0.56,0.82l-2.14,3.04
			c-0.68,0.98-1.37,1.99-1.88,2.88c-0.14,0.23-0.22,0.41-0.31,0.58c-0.01,0.03-0.01,0.05-0.03,0.05c0.11-0.18,0.07-0.84,0.06-0.24
			c-0.05,0.65-0.12,0.94-0.19,1.32l-0.21,0.98c-0.28,1.24-0.54,2.38-0.73,3.5c-0.19,1.09-0.32,2.21-0.25,2.94
			c0,0.21,0.07,0.28,0.08,0.43l0.21,0.72c0.16,0.52,0.35,1.07,0.55,1.62c0.41,1.11,0.84,2.24,1.3,3.37c1.82,4.51,3.8,9.05,5.8,13.52
			l-1-1.21l10.55,7.49l1.04,0.74l0.19,1.26l2.04,13.28l0.28,1.79l-1.45,1.08l-9.19,6.81l-0.79,0.59l-0.99,0
			c-2.46,0-4.93-0.02-7.39,0.04c-1.23,0.03-2.47,0.05-3.7,0.01c-1.23-0.05-2.46-0.13-3.69-0.2l-14.69-0.87l-14.6-0.94
			L1014.11,453.96z M1014.11,453.96l14.79-1.04l14.68-0.94l14.58-0.87c1.21-0.07,2.42-0.16,3.63-0.2c1.21-0.04,2.42-0.02,3.62,0.01
			c2.41,0.05,4.83,0.03,7.24,0.04l-1.79,0.59l9.19-6.81l-1.18,2.87l-2.04-13.28l1.23,1.99l-10.55-7.49l-0.67-0.47l-0.33-0.74
			c-2.04-4.56-4.02-9.09-5.9-13.76c-0.47-1.17-0.93-2.35-1.37-3.56c-0.22-0.61-0.43-1.23-0.64-1.89c-0.1-0.36-0.2-0.67-0.3-1.06
			c-0.09-0.46-0.22-0.98-0.23-1.39c-0.12-1.74,0.11-3.09,0.32-4.44c0.23-1.32,0.52-2.59,0.78-3.76l0.18-0.84
			c0.05-0.23,0.09-0.54,0.08-0.51c-0.01,0.29,0.03-0.67,0.19-1.16c0.1-0.29,0.2-0.55,0.31-0.81c0.19-0.38,0.38-0.77,0.56-1.06
			c0.73-1.25,1.44-2.28,2.17-3.33l2.13-3.03l0.48-0.71l0.2-0.31c0.03-0.06,0.07-0.1,0.06-0.11c-0.01,0-0.01,0-0.01,0l0,0l0.02-0.08
			l0.11-0.36l0.22-0.82c1.15-4.65,2.16-9.55,3.16-14.35l-0.06,0.6v-23.83l0.4,1.5l-6.47-11.23l1.14,1.13l-12.26-6.81l1.8,0.36
			c-2.56,0.3-5.14,0.63-7.7,0.97c-2.56,0.35-5.13,0.71-7.61,1.13c-1.25,0.23-2.46,0.43-3.3,0.76c-1,0.37-2.12,0.89-3.21,1.45
			c-2.19,1.12-4.42,2.43-6.53,3.75l0.95-0.97c-1.07,1.76-2.13,3.55-3.17,5.34l-1.52,2.67l-0.7,1.31c-0.1,0.2-0.23,0.44-0.3,0.59
			l-0.12,0.25c0.02-0.02,0.03-0.08,0.02-0.08l-0.16,1.21l-0.18,1.52l-0.34,3.1l-0.68,6.25l-0.38,3.16
			c-0.07,0.54-0.14,1.06-0.24,1.65l-0.07,0.44c-0.03,0.15-0.09,0.41-0.13,0.61l-0.04,0.16l-0.02,0.08l0.03-0.07
			c0.03-0.09,0.05-0.19,0.06-0.29c0-0.28,0-0.2,0.01-0.21c-0.02,0,0.12,0.47,0.24,0.81c0.15,0.4,0.32,0.82,0.52,1.25
			c0.39,0.86,0.84,1.75,1.31,2.62c0.47,0.88,0.96,1.76,1.47,2.61l0.38,0.62l0.37,0.57l0.86,1.32l3.43,5.28l0.06,0.09l0.06,0.1
			l2.04,3.74l0.45,0.83l-0.1,0.94l-2.72,24.85l-0.07,0.61l-0.3,0.54c-0.73,1.31-1.45,2.62-2.16,3.95l-1.09,1.96
			c-0.38,0.65-0.77,1.29-1.17,1.92l-0.21,0.34l-0.06,0.06l-8.04,8.92c-2.68,2.97-5.35,5.95-8.07,8.9l0.34-0.97l-0.76,11.23
			l-0.5-0.74L1014.11,453.96z"/>
	</g>
	<g>
		<path class="st0" d="M1199.64,514.21l-12.26-6.81l12.26-20.09l17.02-17.36c0,0-0.34-23.49,0-24.85c0.34-1.36-2.72-6.13-4.43-9.53
			c-1.7-3.4-4.43-10.55-4.43-12.6c0-2.04,1.02-17.36,1.02-17.36l7.86-9.87l14.61-7.83h11.57l17.28,9.53l2.13,14.64v24.17
			l-7.49,14.81l-3.06,13.79c0,0-0.34,9.87,0.34,10.89c0.68,1.02,8.09,16,8.09,16l7.91,6.81v9.19l-2.38,6.47H1199.64z"/>
		<path class="st1" d="M1199.64,514.21c-4.17-1.94-8.44-3.88-12.75-5.92l-0.9-0.42l0.52-0.99l5.47-10.44l5.54-10.4l0.07-0.12
			l0.28-0.32l4-4.59c1.34-1.52,2.64-3.09,4.07-4.52c1.42-1.45,2.89-2.84,4.31-4.29l4.26-4.34l-0.86,2.14
			c-0.07-5.53-0.13-11.05-0.15-16.6l0.01-4.17l0.03-2.11l0.03-1.1l0.03-0.57c0.02-0.3,0.07-0.69,0.13-1.03
			c0.02-0.08-0.01,0.03-0.02,0.05l-0.03,0.12c-0.01,0.08-0.02,0.16-0.02,0.24c0.01,0.11,0.01,0.12,0,0.13l0,0.04
			c0.03,0.1-0.01-0.02-0.02-0.06c-0.04-0.15-0.13-0.38-0.24-0.63c-0.22-0.51-0.49-1.07-0.79-1.65c-0.6-1.15-1.28-2.35-1.95-3.58
			c-0.66-1.21-1.38-2.58-1.96-3.91c-0.59-1.32-1.13-2.64-1.64-3.98c-0.51-1.34-0.99-2.68-1.43-4.1c-0.22-0.72-0.43-1.42-0.6-2.26
			c-0.05-0.19-0.09-0.42-0.13-0.66l-0.06-0.35l-0.04-0.46c-0.01-0.14-0.02-0.36-0.02-0.43l0.02-0.26l0.03-0.52l0.98-16.72l0.05-0.92
			l0.59-0.74l7.86-9.87l0.39-0.48l0.55-0.29l14.61-7.83l0.66-0.36h0.75h11.57h0.77l0.68,0.37l17.28,9.53l1.31,0.72l0.21,1.48
			l2.13,14.64l0.03,0.21v0.22v24.17v0.72l-0.32,0.64l-7.49,14.81l0.25-0.7l-3.06,13.79l0.07-0.55c-0.07,2.34-0.11,4.74-0.06,7.04
			c0.01,0.57,0.04,1.14,0.07,1.66c0.02,0.27,0.04,0.52,0.07,0.72l0.02,0.16l0.02,0.06l0.01,0.06c-0.01-0.04-0.08-0.27-0.15-0.39
			l0.84,1.57l0.84,1.63l6.47,12.94l-0.73-0.94l7.91,6.81l1.04,0.9v1.38v9.19v0.54l-0.18,0.5l-2.38,6.47l-0.72,1.96l-2.09,0
			c-5.57,0.01-11.13-0.04-16.7,0.06c-5.56-0.22-11.08-0.62-16.59-0.91l-16.45-1.02C1210.47,515.01,1205.05,514.58,1199.64,514.21z
			 M1199.64,514.21c5.6-0.37,11.19-0.8,16.73-1.13l16.57-1.02c5.5-0.3,10.98-0.69,16.43-0.91c5.43,0.1,10.88,0.05,16.32,0.06
			l-2.81,1.96l2.38-6.47l-0.18,1.04v-9.19l1.04,2.27l-7.91-6.81l-0.46-0.39l-0.28-0.55l-6.44-12.87l-0.81-1.58l-0.86-1.61
			c-0.13-0.26-0.26-0.62-0.31-0.81l-0.08-0.38l-0.07-0.38l-0.04-0.29c-0.05-0.39-0.08-0.74-0.1-1.08c-0.05-0.68-0.07-1.31-0.09-1.94
			c-0.05-2.51-0.01-4.92,0.06-7.39l0.01-0.27l0.06-0.28l3.06-13.79l0.08-0.37l0.17-0.34l7.49-14.81l-0.32,1.35v-24.17l0.03,0.43
			l-2.13-14.64l1.52,2.2l-17.28-9.53l1.45,0.37h-11.57l1.42-0.36l-14.61,7.83l0.93-0.78l-7.86,9.87l0.65-1.67l-0.97,16.34
			l-0.03,0.51l-0.02,0.26c-0.01,0.11,0.01,0.05,0.01,0.09l0,0.05l0.03,0.16c0.01,0.1,0.03,0.21,0.07,0.35
			c0.11,0.52,0.29,1.14,0.47,1.74c0.38,1.22,0.83,2.48,1.3,3.72c0.48,1.24,0.98,2.48,1.52,3.67c0.53,1.2,1.09,2.28,1.75,3.49
			c0.65,1.19,1.33,2.4,2.01,3.69c0.34,0.65,0.67,1.32,1,2.08c0.16,0.38,0.32,0.79,0.48,1.31c0.07,0.3,0.15,0.5,0.2,0.95l0.03,0.3
			c0.01,0.09,0.02,0.19,0.01,0.38c-0.01,0.17-0.02,0.33-0.04,0.5l-0.07,0.42c0.02,0.01,0.03-0.05,0.02,0l-0.02,0.46l-0.03,0.97
			l-0.03,2.02l-0.01,4.11c0.01,5.5,0.07,11.01,0.15,16.52l0.02,1.25l-0.87,0.89l-4.26,4.34c-1.42,1.44-2.78,2.95-4.2,4.39
			c-1.41,1.46-2.95,2.79-4.44,4.16l-4.51,4.09l0.34-0.44l-6.71,9.69l-6.78,9.64l-0.37-1.42L1199.64,514.21z"/>
	</g>
</g>
</svg>
